<svg width="44" height="44" viewBox="0 0 44 44" fill="none" xmlns="http://www.w3.org/2000/svg">
<g filter="url(#filter0_d_2080_22)">
<path d="M40 28.5V12H4V28.5C4 30.4891 4.79018 32.3968 6.1967 33.8033C7.60322 35.2098 9.51088 36 11.5 36H32.5C34.4891 36 36.3968 35.2098 37.8033 33.8033C39.2098 32.3968 40 30.4891 40 28.5ZM15.991 18.744C15.991 19.3395 15.7544 19.9107 15.3333 20.3318C14.9122 20.7529 14.341 20.9895 13.7455 20.9895C13.15 20.9895 12.5788 20.7529 12.1577 20.3318C11.7366 19.9107 11.5 19.3395 11.5 18.744C11.5 18.1485 11.7366 17.5773 12.1577 17.1562C12.5788 16.7351 13.15 16.4985 13.7455 16.4985C14.341 16.4985 14.9122 16.7351 15.3333 17.1562C15.7544 17.5773 15.991 18.1485 15.991 18.744ZM15.991 26.244C15.991 26.8395 15.7544 27.4107 15.3333 27.8318C14.9122 28.2529 14.341 28.4895 13.7455 28.4895C13.15 28.4895 12.5788 28.2529 12.1577 27.8318C11.7366 27.4107 11.5 26.8395 11.5 26.244C11.5 25.6485 11.7366 25.0773 12.1577 24.6562C12.5788 24.2351 13.15 23.9985 13.7455 23.9985C14.341 23.9985 14.9122 24.2351 15.3333 24.6562C15.7544 25.0773 15.991 25.6485 15.991 26.244ZM24.247 18.744C24.247 19.3395 24.0104 19.9107 23.5893 20.3318C23.1682 20.7529 22.597 20.9895 22.0015 20.9895C21.406 20.9895 20.8348 20.7529 20.4137 20.3318C19.9926 19.9107 19.756 19.3395 19.756 18.744C19.756 18.1485 19.9926 17.5773 20.4137 17.1562C20.8348 16.7351 21.406 16.4985 22.0015 16.4985C22.597 16.4985 23.1682 16.7351 23.5893 17.1562C24.0104 17.5773 24.247 18.1485 24.247 18.744ZM24.247 26.244C24.247 26.8395 24.0104 27.4107 23.5893 27.8318C23.1682 28.2529 22.597 28.4895 22.0015 28.4895C21.406 28.4895 20.8348 28.2529 20.4137 27.8318C19.9926 27.4107 19.756 26.8395 19.756 26.244C19.756 25.6485 19.9926 25.0773 20.4137 24.6562C20.8348 24.2351 21.406 23.9985 22.0015 23.9985C22.597 23.9985 23.1682 24.2351 23.5893 24.6562C24.0104 25.0773 24.247 25.6485 24.247 26.244ZM32.491 18.744C32.491 19.3395 32.2544 19.9107 31.8333 20.3318C31.4122 20.7529 30.841 20.9895 30.2455 20.9895C29.65 20.9895 29.0788 20.7529 28.6577 20.3318C28.2366 19.9107 28 19.3395 28 18.744C28 18.1485 28.2366 17.5773 28.6577 17.1562C29.0788 16.7351 29.65 16.4985 30.2455 16.4985C30.841 16.4985 31.4122 16.7351 31.8333 17.1562C32.2544 17.5773 32.491 18.1485 32.491 18.744ZM40 7.5C40 5.51088 39.2098 3.60322 37.8033 2.1967C36.3968 0.790176 34.4891 0 32.5 0H11.5C9.51088 0 7.60322 0.790176 6.1967 2.1967C4.79018 3.60322 4 5.51088 4 7.5V9H40V7.5Z" fill="white"/>
</g>
<defs>
<filter id="filter0_d_2080_22" x="0" y="0" width="44" height="44" filterUnits="userSpaceOnUse" color-interpolation-filters="sRGB">
<feFlood flood-opacity="0" result="BackgroundImageFix"/>
<feColorMatrix in="SourceAlpha" type="matrix" values="0 0 0 0 0 0 0 0 0 0 0 0 0 0 0 0 0 0 127 0" result="hardAlpha"/>
<feOffset dy="4"/>
<feGaussianBlur stdDeviation="2"/>
<feComposite in2="hardAlpha" operator="out"/>
<feColorMatrix type="matrix" values="0 0 0 0 0 0 0 0 0 0 0 0 0 0 0 0 0 0 0.25 0"/>
<feBlend mode="normal" in2="BackgroundImageFix" result="effect1_dropShadow_2080_22"/>
<feBlend mode="normal" in="SourceGraphic" in2="effect1_dropShadow_2080_22" result="shape"/>
</filter>
</defs>
</svg>
