<svg width="250" height="178" viewBox="0 0 250 178" fill="none" xmlns="http://www.w3.org/2000/svg">
<g clip-path="url(#clip0_2125_390)">
<path opacity="0.1" d="M83.1148 176.985C95.2896 176.985 105.159 175.399 105.159 173.444C105.159 171.489 95.2896 169.903 83.1148 169.903C70.9399 169.903 61.0703 171.489 61.0703 173.444C61.0703 175.399 70.9399 176.985 83.1148 176.985Z" fill="#F44E4E"/>
<path opacity="0.1" d="M202.945 177.084C218.137 177.084 230.453 175.499 230.453 173.544C230.453 171.588 218.137 170.003 202.945 170.003C187.753 170.003 175.437 171.588 175.437 173.544C175.437 175.499 187.753 177.084 202.945 177.084Z" fill="#F44E4E"/>
<path opacity="0.1" d="M3.13122 76.5131H26.0919V107.808H4.81215C4.75559 108.13 4.7013 108.453 4.64247 108.777H26.0919V134.016C26.0535 134.004 26.0195 133.991 25.9833 133.977C25.377 133.737 24.7752 133.484 24.1734 133.212L23.7888 133.038C23.1855 132.753 22.5822 132.451 21.9789 132.133C21.7685 132.022 21.5581 131.907 21.35 131.789C18.0008 129.913 14.9582 127.536 12.3277 124.74C12.2508 124.665 12.1784 124.586 12.1015 124.514C11.735 124.115 11.3753 123.713 11.0269 123.301L10.6423 122.848C10.2305 122.344 9.83233 121.826 9.44547 121.301C9.38891 121.224 9.33461 121.147 9.27579 121.075C7.70242 118.893 6.39603 116.531 5.38453 114.039C5.35285 113.964 5.32571 113.883 5.2963 113.813C4.9856 113.013 4.71034 112.206 4.47053 111.392C4.36647 111.05 4.26692 110.713 4.18095 110.358C4.14928 110.254 4.12213 110.152 4.09724 110.05C2.81222 105.035 2.66064 99.8244 2.66064 94.6504C2.66064 94.0464 2.66064 93.4401 2.66064 92.8405C2.66064 90.7478 2.68553 88.6416 2.72173 86.5376C2.72173 85.9924 2.74435 85.4494 2.75566 84.9019C2.78734 83.5128 2.83258 82.1237 2.89141 80.7346C2.90498 80.3478 2.92308 79.9632 2.94344 79.5786C2.94344 79.3569 2.95475 79.1351 2.97738 78.9134C3.03167 78.108 3.07692 77.3094 3.13122 76.5131Z" fill="#F44E4E"/>
<path opacity="0.1" d="M26.0916 41.6682H13.4971C15.5444 38.4637 17.7813 35.3844 20.1959 32.4468C22.0669 30.1482 24.0419 27.9085 26.0916 25.7502V41.6682Z" fill="#F44E4E"/>
<path opacity="0.1" d="M26.0919 42.6365V75.5448H3.20361C3.20361 75.4497 3.21945 75.3525 3.22624 75.2574C3.2466 74.9973 3.26696 74.7371 3.28958 74.4792C3.31447 74.176 3.34162 73.8706 3.37103 73.5743C3.40044 73.2779 3.43211 72.9159 3.46605 72.5879C3.49998 72.2598 3.53166 71.9272 3.57012 71.5992C3.60858 71.2712 3.64251 70.9431 3.68323 70.6173C3.72396 70.2916 3.76015 69.9613 3.80314 69.6355C3.83707 69.364 3.87327 69.0948 3.90947 68.8233C3.9615 68.441 4.0158 68.0564 4.07462 67.6763C4.07462 67.6197 4.09046 67.5609 4.09951 67.5066C4.51243 64.7243 5.07507 61.9662 5.78497 59.2445C6.52806 56.3893 7.47696 53.5918 8.62423 50.8737C9.84357 48.0303 11.2712 45.2809 12.8956 42.6478L26.0919 42.6365Z" fill="#F44E4E"/>
<path opacity="0.1" d="M31.5737 76.5108V107.808H80.6149V76.5108H31.5737ZM31.5737 108.774V135.651C31.8543 135.71 32.1325 135.767 32.4085 135.814C32.7841 135.886 33.1574 135.952 33.5397 136.009C33.6121 136.02 33.6868 136.031 33.766 136.038C33.9153 136.063 34.0691 136.083 34.2184 136.104C34.5962 136.156 34.9718 136.199 35.3496 136.233C35.5283 136.251 35.7093 136.267 35.8903 136.28L36.327 136.314C36.5645 136.332 36.7998 136.346 37.0328 136.353C37.1776 136.353 37.3224 136.366 37.4717 136.371C37.5848 136.371 37.6979 136.371 37.8156 136.371C37.9332 136.371 38.1006 136.371 38.2432 136.371C38.4377 136.371 38.6323 136.371 38.8246 136.371H39.0848C39.2793 136.371 39.4739 136.371 39.6662 136.353H39.6798C39.8133 136.353 39.949 136.353 40.0847 136.334C40.1224 136.337 40.1602 136.337 40.1979 136.334C40.311 136.334 40.4241 136.334 40.5327 136.319H40.6119L41.3698 136.26C41.6186 136.237 41.8697 136.208 42.1231 136.181L42.6389 136.12C44.7375 135.825 46.8127 135.384 48.8491 134.798C53.4236 133.522 57.8986 131.737 62.4708 130.43C68.3823 128.744 74.9138 127.916 80.6262 129.977V108.774H31.5737ZM80.6149 41.6682V0.0022655C75.2458 -0.0559052 69.8912 0.572082 64.6811 1.87098C52.263 4.99077 41.1209 11.7575 31.5737 20.3997V41.6659H34.0352V42.6319H31.5737V75.5448H80.6149V42.6342H44.1411V41.6682H80.6149ZM143.606 27.594C140.534 27.4854 137.479 26.5126 134.717 25.0104C129.434 22.1372 125.215 17.7007 120.5 13.9565C110.704 6.15815 98.5555 1.45244 86.0921 0.285061V41.6682H156.101L156.275 41.4849L143.606 27.594ZM149.983 26.4628L156.746 33.8834V24.5172C154.481 24.7977 152.497 25.4651 149.993 26.4538L149.983 26.4628ZM156.746 142.325V108.774H142.337C142.298 108.632 142.26 108.487 142.215 108.342C142.257 108.487 142.294 108.632 142.334 108.774H86.1012V133.038C86.6351 133.434 87.1622 133.85 87.6848 134.273C88.2481 134.726 88.8047 135.203 89.3635 135.672L89.9268 136.138C90.196 136.364 90.4675 136.59 90.7413 136.803C91.2842 137.243 91.8325 137.678 92.386 138.106C92.6597 138.332 92.9403 138.536 93.2185 138.748C97.6363 142.126 102.297 145.174 107.161 147.868C108.252 148.471 109.352 149.06 110.462 149.635C111.202 150.013 111.946 150.388 112.693 150.752C113.815 151.3 114.946 151.828 116.087 152.336C126.599 157.055 137.715 160.293 149.117 161.958C151.649 162.332 154.191 162.626 156.743 162.84V142.323H156.97L156.746 142.325ZM86.1012 42.6342V75.5448H156.755V42.6342H86.1012ZM86.1012 76.5108V107.808H156.755V76.5108H86.1012ZM162.239 24.4765V34.9241L170.87 25.4538C168.01 24.9923 165.133 24.6628 162.239 24.4652V24.4765ZM162.239 76.5221V107.808H230.958V76.5108L162.239 76.5221ZM230.707 144.809L230.949 108.774H162.239V163.2C166.665 163.386 171.098 163.333 175.519 163.042H175.596C177.707 162.909 179.809 162.716 181.901 162.462H181.948C193.109 161.164 204.021 158.252 214.345 153.818M244.209 81.6645C243.951 81.0559 243.681 80.4518 243.408 79.8546C242.896 78.7234 242.356 77.6239 241.799 76.5244H236.437V107.808H249.993C249.987 98.9489 247.745 89.8995 244.215 81.6532L244.209 81.6645ZM236.437 108.786V139.78C240.256 136.12 243.482 131.932 245.806 127.145C248.6 121.38 249.878 115.138 249.982 108.781L236.437 108.786ZM236.437 67.4025V75.547H241.297C239.827 72.7433 238.207 70.0208 236.444 67.3912L236.437 67.4025ZM189.833 30.6165C189.475 30.4808 189.118 30.3428 188.758 30.2093C184.964 28.8083 181.088 27.6432 177.15 26.7208L163.942 41.2157L163.689 41.4849L163.859 41.6704H210.866C204.319 37.1639 197.261 33.4496 189.839 30.6052L189.833 30.6165ZM212.244 42.6455H163.202L162.239 43.5278V75.5448H170.686H170.7H230.967V60.0363C225.515 53.4428 219.223 47.5923 212.25 42.6342L212.244 42.6455Z" fill="#F44E4E"/>
<path opacity="0.1" d="M26.0919 59.2354V75.5448H3.20361C3.20361 75.4498 3.21945 75.3525 3.22624 75.2575C3.2466 74.9973 3.26696 74.7371 3.28958 74.4792C3.31447 74.176 3.34162 73.8706 3.37103 73.5743C3.40044 73.2779 3.43211 72.9159 3.46605 72.5879C3.49998 72.2598 3.53166 71.9273 3.57012 71.5992C3.60858 71.2712 3.64251 70.9431 3.68323 70.6173C3.72396 70.2916 3.76015 69.9613 3.80314 69.6355C3.83707 69.364 3.87327 69.0948 3.90947 68.8233C3.9615 68.441 4.0158 68.0564 4.07462 67.6763C4.07462 67.6197 4.09046 67.5609 4.09951 67.5066C4.51243 64.7243 5.07507 61.9662 5.78497 59.2445L26.0919 59.2354Z" fill="#F44E4E"/>
<path opacity="0.1" d="M3.13122 76.5131H26.0919V107.808H4.81215C4.75559 108.13 4.7013 108.453 4.64247 108.777H26.0919V134.016C26.0535 134.004 26.0195 133.991 25.9833 133.977C25.377 133.737 24.7752 133.484 24.1734 133.212L23.7888 133.038C23.1855 132.753 22.5822 132.451 21.9789 132.133C21.7685 132.022 21.5581 131.907 21.35 131.789C18.0008 129.913 14.9582 127.536 12.3277 124.74C12.2508 124.665 12.1784 124.586 12.1015 124.514C11.735 124.115 11.3753 123.713 11.0269 123.301L10.6423 122.848C10.2305 122.344 9.83233 121.826 9.44547 121.301C9.38891 121.224 9.33461 121.147 9.27579 121.075C7.70242 118.893 6.39603 116.531 5.38453 114.039C5.35285 113.964 5.32571 113.883 5.2963 113.813C4.9856 113.013 4.71034 112.206 4.47053 111.392C4.36647 111.05 4.26692 110.713 4.18095 110.358C4.14928 110.254 4.12213 110.152 4.09724 110.05C2.81222 105.035 2.66064 99.8244 2.66064 94.6504C2.66064 94.0464 2.66064 93.4401 2.66064 92.8405C2.66064 90.7478 2.68553 88.6416 2.72173 86.5376C2.72173 85.9924 2.74435 85.4494 2.75566 84.9019C2.78734 83.5128 2.83258 82.1237 2.89141 80.7346C2.90498 80.3478 2.92308 79.9632 2.94344 79.5786C2.94344 79.3569 2.95475 79.1351 2.97738 78.9134C3.03167 78.108 3.07692 77.3094 3.13122 76.5131Z" fill="#F44E4E"/>
<path opacity="0.1" d="M48.8378 47.3467V75.5448H31.5737V47.3467H34.0352V37.7995H44.1389V47.3467H48.8378Z" fill="#F44E4E"/>
<path opacity="0.1" d="M48.8375 76.5108H31.5757V107.806H48.8375V76.5108Z" fill="#F44E4E"/>
<path opacity="0.1" d="M31.5737 108.777H48.8378V134.794C46.8013 135.379 44.7261 135.82 42.6276 136.113L42.1118 136.176C41.8584 136.205 41.6073 136.23 41.3584 136.255C41.1096 136.28 40.8517 136.298 40.6006 136.314H40.5214C40.4128 136.314 40.2951 136.328 40.1888 136.33H40.0734C39.9377 136.33 39.8019 136.343 39.6662 136.348C39.4739 136.359 39.2816 136.362 39.0848 136.364C39.0011 136.364 38.9219 136.364 38.8382 136.364C38.6436 136.364 38.4513 136.364 38.2567 136.364H37.8292C37.7138 136.364 37.6029 136.364 37.483 136.364L37.0464 136.348C36.8201 136.348 36.5758 136.323 36.3405 136.307L35.9062 136.276L35.3654 136.226C34.9854 136.192 34.6076 136.149 34.2343 136.097L33.7818 136.034L33.5556 136.002C33.1777 135.943 32.8045 135.88 32.4244 135.807C32.1461 135.76 31.8701 135.701 31.5896 135.644L31.5737 108.777Z" fill="#F44E4E"/>
<path opacity="0.1" d="M156.754 44.0165H142.52V75.5425H156.754V44.0165Z" fill="#F44E4E"/>
<path opacity="0.1" d="M156.757 76.5108V107.808H86.1011V94.3088H123.735V102.272H142.52V76.5108H156.757Z" fill="#F44E4E"/>
<path opacity="0.1" d="M156.981 142.332H156.755V162.863C154.206 162.647 151.664 162.354 149.13 161.983C137.723 160.313 126.602 157.068 116.086 152.341C113.05 150.974 110.076 149.483 107.164 147.866C102.299 145.17 97.6379 142.122 93.2185 138.746C92.1084 137.895 91.0127 137.025 89.9313 136.135C89.1824 135.518 88.4381 134.884 87.6847 134.269C87.1621 133.846 86.635 133.43 86.1011 133.031V108.777H142.332C142.294 108.632 142.255 108.487 142.214 108.344C142.257 108.487 142.298 108.632 142.337 108.777H156.755V142.318C156.832 142.321 156.906 142.327 156.981 142.332Z" fill="#F44E4E"/>
<path opacity="0.1" d="M193.88 41.6682H184.604V38.7859H188.762V30.2003C189.123 30.3315 189.482 30.4665 189.839 30.6052V38.7859H193.88V41.6682Z" fill="#F44E4E"/>
<path opacity="0.1" d="M216.227 75.5448H170.69C170.69 75.5448 170.69 75.5448 170.706 75.5561L170.686 75.5448H162.238V44.0188H164.632V67.3211H175.57V53.5207H184.606V42.6365H193.882V53.5297H202.918V67.3301H216.227V75.5448Z" fill="#F44E4E"/>
<path opacity="0.1" d="M162.238 76.5108V107.808H216.227V76.5108H162.238ZM230.883 144.649L230.958 119.876H216.227V108.79H162.238V163.2C166.665 163.386 171.098 163.333 175.518 163.042H175.595C177.707 162.909 179.809 162.716 181.9 162.462H181.948C193.108 161.164 204.021 158.252 214.345 153.818" fill="#F44E4E"/>
<path opacity="0.1" d="M237.396 108.777H249.991C249.88 115.132 248.604 121.373 245.812 127.138C243.489 131.927 240.261 136.115 236.446 139.773V119.864H237.396V108.777Z" fill="#F44E4E"/>
<path opacity="0.1" d="M249.998 107.808H237.396V81.6531H244.215C247.745 89.8995 249.987 98.9489 249.998 107.808Z" fill="#F44E4E"/>
<path opacity="0.1" d="M156.757 52.7809H149.13V62.6651H156.757V52.7809Z" fill="#F44E4E"/>
<path opacity="0.1" d="M156.757 73.2688H149.13V75.5448H156.757V73.2688Z" fill="#F44E4E"/>
<path opacity="0.1" d="M156.757 76.5108H149.13V83.1508H156.757V76.5108Z" fill="#F44E4E"/>
<path opacity="0.1" d="M156.757 93.7568H149.13V103.641H156.757V93.7568Z" fill="#F44E4E"/>
<path opacity="0.1" d="M156.757 114.245H149.13V124.129H156.757V114.245Z" fill="#F44E4E"/>
<path opacity="0.1" d="M156.755 142.318C156.831 142.318 156.906 142.318 156.981 142.332H156.755V144.628H149.13V134.733H156.755V142.318Z" fill="#F44E4E"/>
<path opacity="0.1" d="M156.755 155.216V162.852C154.206 162.636 151.664 162.343 149.13 161.972V155.216H156.755Z" fill="#F44E4E"/>
<path opacity="0.1" d="M118.785 107.082H86.1011V107.808H118.785V107.082Z" fill="#F44E4E"/>
<path opacity="0.1" d="M118.785 108.774H86.1011V111.557H118.785V108.774Z" fill="#F44E4E"/>
<path opacity="0.1" d="M118.785 120.679H86.1011V125.154H118.785V120.679Z" fill="#F44E4E"/>
<path opacity="0.1" d="M118.783 134.276V138.751H93.2181C92.1081 137.903 91.0116 137.033 89.9287 136.14C89.1798 135.522 88.4378 134.889 87.6821 134.276H118.783Z" fill="#F44E4E"/>
<path opacity="0.1" d="M118.783 147.87V152.341H116.084C113.051 150.973 110.077 149.48 107.164 147.863L118.783 147.87Z" fill="#F44E4E"/>
<path opacity="0.1" d="M181.955 79.5446H175.521V85.9788H181.955V79.5446Z" fill="#F44E4E"/>
<path opacity="0.1" d="M42.6431 49.5661H36.209V56.0002H42.6431V49.5661Z" fill="#F44E4E"/>
<path opacity="0.1" d="M42.6431 64.5112H36.209V70.9454H42.6431V64.5112Z" fill="#F44E4E"/>
<path opacity="0.1" d="M42.6431 79.4564H36.209V85.8905H42.6431V79.4564Z" fill="#F44E4E"/>
<path opacity="0.1" d="M42.6431 94.3993H36.209V100.833H42.6431V94.3993Z" fill="#F44E4E"/>
<path opacity="0.1" d="M42.6431 109.344H36.209V115.779H42.6431V109.344Z" fill="#F44E4E"/>
<path opacity="0.1" d="M42.6431 124.29H36.209V130.724H42.6431V124.29Z" fill="#F44E4E"/>
<path opacity="0.1" d="M206.517 79.5446H200.083V85.9788H206.517V79.5446Z" fill="#F44E4E"/>
<path opacity="0.1" d="M181.955 95.4151H175.521V101.849H181.955V95.4151Z" fill="#F44E4E"/>
<path opacity="0.1" d="M206.517 95.4151H200.083V101.849H206.517V95.4151Z" fill="#F44E4E"/>
<path opacity="0.1" d="M181.955 111.283H175.521V117.717H181.955V111.283Z" fill="#F44E4E"/>
<path opacity="0.1" d="M206.517 111.283H200.083V117.717H206.517V111.283Z" fill="#F44E4E"/>
<path opacity="0.1" d="M181.955 127.154H175.521V133.588H181.955V127.154Z" fill="#F44E4E"/>
<path opacity="0.1" d="M206.517 127.154H200.083V133.588H206.517V127.154Z" fill="#F44E4E"/>
<path opacity="0.1" d="M181.955 143.024H175.521V149.458H181.955V143.024Z" fill="#F44E4E"/>
<path opacity="0.1" d="M206.517 143.024H200.083V149.458H206.517V143.024Z" fill="#F44E4E"/>
<path opacity="0.1" d="M175.521 163.042V158.892H181.953V162.451L175.521 163.042Z" fill="#F44E4E"/>
<path opacity="0.1" d="M4.07227 67.5021V71.1829H26.0918V67.5021H4.07227ZM6.26676 70.9522H4.47044V67.7283H6.28033L6.26676 70.9522ZM8.45898 70.9522H6.6491V67.7283H8.45898V70.9522ZM10.6467 70.9522H8.8368V67.7283H10.6467V70.9522ZM12.8389 70.9522H11.0313V67.7283H12.8412L12.8389 70.9522ZM15.0289 70.9522H13.219V67.7283H15.0289V70.9522ZM17.2211 70.9522H15.4112V67.7283H17.2211V70.9522ZM19.4133 70.9522H17.6034V67.7283H19.4133V70.9522ZM21.6033 70.9522H19.7934V67.7283H21.6033V70.9522ZM23.7933 70.9522H21.9834V67.7283H23.7933V70.9522ZM25.9832 70.9522H24.1733V67.7283H25.9832V70.9522Z" fill="#F44E4E"/>
<path opacity="0.1" d="M4.07227 78.2121V81.893H26.0918V78.2121H4.07227ZM6.26676 81.6599H4.47044V78.4451H6.28033L6.26676 81.6599ZM8.45898 81.6599H6.6491V78.4451H8.45898V81.6599ZM10.6467 81.6599H8.8368V78.4451H10.6467V81.6599ZM12.8389 81.6599H11.0313V78.4451H12.8412L12.8389 81.6599ZM15.0289 81.6599H13.219V78.4451H15.0289V81.6599ZM17.2211 81.6599H15.4112V78.4451H17.2211V81.6599ZM19.4133 81.6599H17.6034V78.4451H19.4133V81.6599ZM21.6033 81.6599H19.7934V78.4451H21.6033V81.6599ZM23.7933 81.6599H21.9834V78.4451H23.7933V81.6599ZM25.9832 81.6599H24.1733V78.4451H25.9832V81.6599Z" fill="#F44E4E"/>
<path opacity="0.1" d="M4.07227 88.9266V92.6143H26.0918V88.9266H4.07227ZM6.26676 92.3745H4.47044V89.1574H6.28033L6.26676 92.3745ZM8.45898 92.3745H6.6491V89.1574H8.45898V92.3745ZM10.6467 92.3745H8.8368V89.1574H10.6467V92.3745ZM12.8389 92.3745H11.0313V89.1574H12.8412L12.8389 92.3745ZM15.0289 92.3745H13.219V89.1574H15.0289V92.3745ZM17.2211 92.3745H15.4112V89.1574H17.2211V92.3745ZM19.4133 92.3745H17.6034V89.1574H19.4133V92.3745ZM21.6033 92.3745H19.7934V89.1574H21.6033V92.3745ZM23.7933 92.3745H21.9834V89.1574H23.7933V92.3745ZM25.9832 92.3745H24.1733V89.1574H25.9832V92.3745Z" fill="#F44E4E"/>
<path opacity="0.1" d="M4.07227 99.6412V103.318H26.0918V99.6412H4.07227ZM6.26676 103.089H4.47044V99.8697H6.28033L6.26676 103.089ZM8.45898 103.089H6.6491V99.8697H8.45898V103.089ZM10.6467 103.089H8.8368V99.8697H10.6467V103.089ZM12.8389 103.089H11.0313V99.8697H12.8412L12.8389 103.089ZM15.0289 103.089H13.219V99.8697H15.0289V103.089ZM17.2211 103.089H15.4112V99.8697H17.2211V103.089ZM19.4133 103.089H17.6034V99.8697H19.4133V103.089ZM21.6033 103.089H19.7934V99.8697H21.6033V103.089ZM23.7933 103.089H21.9834V99.8697H23.7933V103.089ZM25.9832 103.089H24.1733V99.8697H25.9832V103.089Z" fill="#F44E4E"/>
<path opacity="0.1" d="M4.16748 110.353C4.25571 110.7 4.35525 111.046 4.45932 111.387V110.584H6.26921V113.801H5.30092C5.33033 113.876 5.35974 113.957 5.38915 114.028H26.092V110.353H4.16748ZM8.46597 113.801H6.65608V110.584H8.46597V113.801ZM10.6537 113.801H8.84378V110.584H10.6537V113.801ZM12.8459 113.801H11.0315V110.584H12.8414L12.8459 113.801ZM15.0359 113.801H13.226V110.584H15.0359V113.801ZM17.2281 113.801H15.4182V110.584H17.2281V113.801ZM19.4203 113.801H17.6104V110.584H19.4203V113.801ZM21.6103 113.801H19.8004V110.584H21.6103V113.801ZM23.8003 113.801H21.9904V110.584H23.8003V113.801ZM25.9902 113.801H24.1803V110.584H25.9902V113.801Z" fill="#F44E4E"/>
<path opacity="0.1" d="M9.28027 121.068C9.33683 121.14 9.39113 121.222 9.44995 121.294H10.6467V122.839C10.7757 122.993 10.9024 123.147 11.0336 123.292V121.285H12.8435V124.514H12.1105C12.1829 124.588 12.253 124.667 12.3367 124.74H26.0987V121.068H9.28027ZM15.0289 124.514H13.219V121.299H15.0289V124.514ZM17.2212 124.514H15.4113V121.299H17.2212V124.514ZM19.4134 124.514H17.6035V121.299H19.4134V124.514ZM21.6034 124.514H19.7935V121.299H21.6034V124.514ZM23.7933 124.514H21.9834V121.299H23.7933V124.514ZM25.9833 124.514H24.1734V121.299H25.9833V124.514Z" fill="#F44E4E"/>
<path opacity="0.1" d="M21.3589 131.78C21.5648 131.898 21.7752 132.007 21.9878 132.124V132.011H23.7977V133.029L24.1823 133.208V132.011H25.9922V133.968C26.0269 133.985 26.0633 133.999 26.1008 134.009V131.78H21.3589Z" fill="#F44E4E"/>
<path opacity="0.1" d="M142.214 108.342C142.257 108.487 142.293 108.632 142.334 108.774C142.298 108.632 142.259 108.487 142.214 108.342ZM34.0439 41.6614V42.6274H44.1499V41.6614H34.0439ZM142.214 108.342C142.257 108.487 142.293 108.632 142.334 108.774C142.298 108.632 142.259 108.487 142.214 108.342ZM142.214 108.342C142.257 108.487 142.293 108.632 142.334 108.774C142.298 108.632 142.259 108.487 142.214 108.342Z" fill="#F44E4E"/>
<path d="M104.43 85.8951C104.43 85.8951 103.539 85.7706 103.539 84.472C103.539 83.1735 102.901 80.7482 102.901 80.7482C102.901 80.7369 102.349 76.5244 101.587 75.8547C100.824 75.1851 99.8447 71.2531 99.8447 71.2531C99.8447 71.2531 99.6772 69.1197 99.3356 68.6604C98.994 68.2011 98.5325 67.0768 97.8515 65.4727C97.1705 63.8687 94.3313 62.7579 94.3313 62.7579C94.3313 62.7579 89.198 59.7806 87.7433 58.8101C87.6111 58.7303 87.4875 58.6371 87.3745 58.5318C87.1211 58.1992 86.0171 58.1925 86.0171 58.1925C85.9017 57.464 85.7909 56.6269 85.7547 55.869C85.7547 55.7876 85.7547 55.7061 85.7433 55.6247C87.3654 54.6658 88.5872 53.1541 89.1844 51.3669C89.2116 51.2809 89.2342 51.1904 89.2591 51.1045C89.3563 51.0725 89.4457 51.0205 89.5217 50.952C89.5976 50.8834 89.6584 50.7997 89.7002 50.7063C89.8314 50.4145 89.8337 50.0728 89.9966 49.8014C90.1866 49.4801 90.5486 49.3082 90.8337 49.0661C91.5531 48.4553 91.7386 47.4259 91.7047 46.4893C91.682 45.7314 91.5599 44.9667 91.6074 44.2133L91.621 44.0233C91.6345 43.9102 91.6504 43.7971 91.6707 43.6885C91.7816 43.1274 92.0237 42.598 92.1594 42.0415C92.2952 41.4849 92.3087 40.8582 91.992 40.3786C91.5282 39.675 90.5622 39.5348 89.7138 39.4624C88.7523 39.3809 87.8926 39.4873 87.2772 38.6886C86.9892 38.2712 86.6652 37.8799 86.3089 37.519C86.1822 37.4014 84.9515 36.6503 84.9515 36.6005C83.7503 36.0441 82.3888 35.9397 81.1168 36.3064C80.4788 36.4919 79.877 36.795 79.23 36.9466C77.8341 37.2769 76.2279 36.9195 75.0424 37.7181C74.3818 38.1706 73.9859 38.89 73.6148 39.5913C73.3132 40.169 73.007 40.7459 72.6963 41.322C72.1963 42.27 71.6873 43.2337 71.4769 44.2835C71.4327 44.5119 71.4054 44.7433 71.3955 44.9757V44.9871C71.3955 45.0708 71.3955 45.1545 71.3955 45.2382V45.3445C71.3955 45.4237 71.3955 45.5006 71.409 45.5707C71.4226 45.6409 71.4203 45.6635 71.4271 45.711C71.4339 45.7585 71.4452 45.8649 71.4588 45.9372C71.4724 46.0096 71.4995 46.1363 71.5267 46.2359C71.538 46.2789 71.5538 46.3196 71.5674 46.3603C71.59 46.4372 71.6172 46.5119 71.6466 46.5865C71.6624 46.625 71.6782 46.6657 71.6963 46.7042C71.7303 46.7834 71.771 46.8603 71.8117 46.9304C71.8298 46.9621 71.8434 46.9915 71.8615 47.0209C71.9246 47.1261 71.9941 47.2274 72.0696 47.3241C72.5538 47.9281 73.2664 48.3127 73.7936 48.8783C73.7936 48.9009 73.7936 48.9236 73.7936 48.9439C73.7936 49.0073 73.7936 49.0684 73.7936 49.1317C73.8215 50.3931 74.1573 51.6285 74.7716 52.7306C75.3859 53.8326 76.2601 54.7679 77.3183 55.455C77.3183 55.541 77.3296 55.6292 77.3342 55.7152C77.3783 56.3867 77.3699 57.0607 77.3093 57.7309C77.2171 57.6224 77.1018 57.536 76.9718 57.4781C76.8418 57.4201 76.7004 57.3921 76.5582 57.3961C76.461 57.3914 76.3635 57.3997 76.2686 57.421L76.2482 57.4052V57.4255C75.7505 57.5477 75.1374 58.0658 74.5514 59.5386C74.5514 59.5386 72.7687 61.5475 71.4113 61.4638C70.0539 61.3801 66.6173 63.5543 66.6173 63.5543C66.6173 63.5543 63.2645 65.7306 62.5451 67.9478C62.143 69.205 61.6609 70.4352 61.1017 71.6309L56.9571 80.1713L56.1924 86.9471C56.1924 86.9471 56.6154 89.9605 56.5317 90.4198C56.448 90.8791 58.2715 95.0214 58.2715 95.0214C58.2715 95.0214 64.2962 105.607 66.7576 106.15L66.9341 106.026C67.0394 106.081 67.1511 106.122 67.2666 106.15L67.7734 105.793C67.8038 106.191 67.791 106.591 67.735 106.987C67.3956 108.032 67.8616 114.853 68.4544 116.19C69.0471 117.527 68.8367 135.058 68.8367 135.058L68.753 136.606C68.753 136.606 68.753 136.656 68.7734 136.742L68.753 137.108L68.8141 137.14C68.8775 137.631 68.8569 138.129 68.753 138.613C68.5404 139.291 68.4544 141.21 68.4544 141.21C68.4544 141.21 66.7599 152.042 67.563 154.218C68.3662 156.395 69.0494 158.779 69.0494 158.779C69.0494 158.779 69.8978 161.494 69.0901 161.958C68.2824 162.422 65.9861 163.2 66.459 164.331C66.8888 165.376 68.52 168.177 68.7621 168.587L68.7417 168.802L68.4091 172.406C68.463 172.881 68.592 173.346 68.7915 173.781C69.1557 174.566 69.8638 175.381 71.2099 175.292C71.4362 175.276 71.6986 175.249 71.952 175.215C74.4157 174.885 77.4495 173.786 77.4495 173.786C77.292 173.685 77.1476 173.566 77.0197 173.43C76.8986 173.313 76.8026 173.172 76.7377 173.017C76.6727 172.861 76.6401 172.694 76.6419 172.525C76.6781 171.869 75.4496 168.743 75.1442 167.974C75.0967 167.863 75.0718 167.799 75.0718 167.799C75.0718 167.799 77.8726 164.872 77.4066 162.277C77.4066 162.277 74.3071 160.467 75.3274 159.474C76.3478 158.481 78.1712 155.628 78.1712 155.628C78.1712 155.628 78.2549 144.961 78.1712 143.368C78.0839 142.263 78.1364 141.151 78.3273 140.058C78.3613 139.893 78.402 139.732 78.445 139.574C79.8561 139.785 81.2806 139.893 82.7073 139.898C83.2276 139.898 83.757 139.898 84.2909 139.866C84.2909 140.017 84.2977 140.18 84.3113 140.355C84.4289 142.997 84.6484 147.63 84.8271 149.352C85.0805 151.82 86.4809 158.472 86.4809 158.472C86.4809 158.472 83.809 160.186 86.9469 164.413C86.9469 164.413 86.9469 165.944 86.7388 166.166C86.5166 166.891 86.3375 167.628 86.2026 168.374C86.0714 169.17 86.0171 169.976 86.2298 170.394C86.7388 171.394 89.793 171.313 89.793 171.313L89.8676 171.299C90.4442 171.24 91.0269 171.295 91.5819 171.462C92.1369 171.63 92.6531 171.906 93.1006 172.274C94.2611 173.206 98.666 172.797 101.05 172.501C101.985 172.383 102.609 172.274 102.609 172.274C102.64 172.169 102.65 172.058 102.641 171.949C102.616 171.363 102.157 170.078 99.0438 168.931C99.0438 168.931 96.1163 166.962 96.157 165.247H96.0959H95.7566C96.0032 165.234 96.1615 165.247 96.1615 165.247C96.1615 165.247 95.0145 161.062 95.4828 160.723C95.9511 160.383 94.5485 155.745 94.5485 155.745C94.5485 155.745 93.7453 147.963 93.7023 147.418C93.7041 146.95 93.775 146.485 93.9127 146.038L93.7023 141.771C93.7023 141.771 93.6616 140.352 93.7023 139.891C93.6955 139.49 93.663 139.09 93.6051 138.694C93.5847 138.536 93.5643 138.371 93.5417 138.208C94.639 137.929 95.3516 137.671 95.3516 137.671L95.2249 122.819C96.157 121.009 96.3289 117.039 96.3244 114.222C96.3244 112.412 96.243 111.073 96.243 111.073L97.5167 108.994C97.5167 108.994 97.8108 106.505 97.3447 105.96C97.1389 105.713 97.2316 105.458 97.4013 105.247C97.4894 105.177 97.5824 105.114 97.6796 105.057C97.6796 105.057 97.666 105.037 97.6502 105.007C97.7391 104.933 97.8336 104.866 97.933 104.806C97.933 104.806 97.4805 104.105 97.8854 103.808C98.2655 104.066 98.6049 104.261 98.8628 104.419C98.8447 104.584 98.8266 104.679 98.8266 104.679L98.9352 104.453C99.184 104.593 99.3356 104.679 99.3356 104.679C99.3356 104.679 101.331 100.704 101.288 100.119C101.245 99.5326 102.645 97.0644 102.645 97.0644C102.645 97.0644 102.815 95.768 103.58 95.225C104.344 94.6821 104.173 90.7478 104.173 90.7478C104.173 90.7478 104.385 88.6981 104.894 87.8611C105.403 87.024 104.43 85.8951 104.43 85.8951ZM66.2508 84.1508L66.2893 85.0987C66.0631 84.7345 65.9002 84.472 65.9002 84.472L66.2508 84.1508Z" fill="url(#paint0_linear_2125_390)"/>
<path d="M99.4442 102.962L98.9556 105.044C98.9556 105.044 95.0417 103.046 94.3358 100.508C93.63 97.9693 95.5168 97.0055 95.5168 97.0055L99.1637 98.5507L99.4442 102.962Z" fill="white"/>
<path opacity="0.1" d="M99.4442 102.962L98.9556 105.044C98.9556 105.044 95.0417 103.046 94.3358 100.508C93.63 97.9693 95.5168 97.0055 95.5168 97.0055L99.1637 98.5507L99.4442 102.962Z" fill="black"/>
<path d="M77.4789 173.799C77.4789 173.799 73.8591 175.129 71.3705 175.297C70.0493 175.385 69.3548 174.575 68.9973 173.795C68.802 173.361 68.6761 172.899 68.624 172.426L68.9475 168.84L69.1195 166.931L74.4066 165.557L75.1555 167.847L75.2256 168.021C75.5265 168.786 76.7323 171.896 76.6961 172.546C76.6946 172.712 76.7267 172.877 76.7905 173.03C76.8543 173.184 76.9484 173.323 77.0672 173.439C77.1886 173.576 77.3269 173.697 77.4789 173.799Z" fill="white"/>
<path d="M102.204 171.976C102.214 172.085 102.203 172.194 102.173 172.299C102.173 172.299 94.431 173.591 92.8473 172.299C92.4008 171.922 91.8804 171.642 91.3193 171.478C90.7583 171.313 90.1691 171.268 89.5895 171.344C89.5895 171.344 86.5942 171.426 86.0942 170.44C85.886 170.026 85.9403 169.222 86.0693 168.431C86.2008 167.689 86.3761 166.955 86.5942 166.234L86.7141 166.139L87.4267 165.566L95.7703 165.32H95.8336C95.7929 167.026 98.6661 168.983 98.6661 168.983C101.718 170.114 102.168 171.392 102.204 171.976Z" fill="white"/>
<path opacity="0.1" d="M102.204 171.976C102.212 172.085 102.201 172.194 102.17 172.299C102.17 172.299 94.4308 173.591 92.8471 172.299C92.4009 171.922 91.8808 171.642 91.3202 171.478C90.7596 171.314 90.1708 171.268 89.5916 171.344C89.5916 171.344 86.5939 171.426 86.0962 170.44C85.8881 170.023 85.9401 169.222 86.0691 168.431C87.2229 168.546 89.0441 168.833 89.759 169.519C90.8404 170.562 92.6729 171.602 93.7973 171.684C94.6773 171.74 99.9419 171.908 102.204 171.976Z" fill="black"/>
<path opacity="0.1" d="M77.4793 173.799C77.4793 173.799 73.8595 175.129 71.371 175.297C70.0497 175.385 69.3552 174.575 69 173.792C69.9208 174.102 71.199 174.428 71.8709 174.129C72.6673 173.777 75.4907 173.548 77.0744 173.451C77.1949 173.583 77.3309 173.7 77.4793 173.799Z" fill="black"/>
<path d="M82.8501 66.5971C79.8637 65.4365 76.0223 61.6018 76.9815 59.81C77.1945 59.3579 77.3211 58.8699 77.3548 58.3712C77.4165 57.6942 77.4256 57.0135 77.3819 56.3351C77.3147 55.224 77.181 54.118 76.9815 53.023C76.9815 53.023 86.3047 53.2334 85.7617 54.6066C85.6034 55.0093 85.5785 55.7084 85.6215 56.4912C85.6644 57.2739 85.7776 58.1585 85.8952 58.9074C86.0581 59.9345 86.221 60.7173 86.221 60.7173C86.221 60.7173 85.6509 61.5159 85.316 61.5589C84.9812 61.6018 87.135 68.2509 82.8501 66.5971Z" fill="#CF6F80"/>
<path opacity="0.1" d="M75.219 168.021L75.1488 168.098C72.3616 164.727 68.9907 168.928 68.9907 168.928L68.9409 168.84L69.1129 166.931L74.4 165.557L75.1488 167.847L75.219 168.021Z" fill="black"/>
<path opacity="0.1" d="M95.8357 165.557C95.8357 165.557 93.7996 165.514 92.7136 166.474C91.6277 167.433 86.379 166.682 86.6052 166.474C86.6723 166.37 86.7127 166.252 86.7229 166.13L87.4355 165.557L95.7791 165.311C95.8108 165.462 95.8357 165.557 95.8357 165.557Z" fill="black"/>
<path d="M78.6872 139.085C78.5355 139.46 78.4204 139.849 78.3433 140.246C78.1546 141.333 78.1022 142.44 78.1872 143.54C78.2709 145.124 78.1872 155.736 78.1872 155.736C78.1872 155.736 76.3977 158.567 75.4 159.564C74.4023 160.562 77.4361 162.354 77.4361 162.354C77.8886 164.933 75.1466 167.847 75.1466 167.847C72.3593 164.476 68.9884 168.679 68.9884 168.679C68.9884 168.679 67.1559 165.512 66.6989 164.381C66.2419 163.25 68.4884 162.467 69.278 162.008C70.0676 161.548 69.2396 158.84 69.2396 158.84C69.2396 158.84 68.5722 156.467 67.7803 154.302C66.9885 152.137 68.6536 141.359 68.6536 141.359C68.6536 141.359 68.7396 139.445 68.9454 138.778C69.0493 138.296 69.07 137.8 69.0065 137.312C68.993 137.147 68.9771 137.009 68.9658 136.916C68.9545 136.823 68.9454 136.78 68.9454 136.78L68.9771 136.726L70.1083 134.617C70.1083 134.617 79.2301 137.757 78.6872 139.085Z" fill="#F44E4E"/>
<path d="M95.8357 165.308C95.8357 165.308 93.7995 165.266 92.7136 166.213C91.6277 167.161 86.379 166.422 86.6052 166.213C86.8315 166.005 86.8134 164.465 86.8134 164.465C83.7343 160.261 86.3609 158.555 86.3609 158.555C86.3609 158.555 84.9854 151.938 84.7365 149.483C84.5623 147.768 84.3474 143.16 84.232 140.529C84.1822 139.398 84.1528 138.619 84.1528 138.619L86.6686 138.113L86.9921 138.047L93.0597 136.83C93.0597 136.83 93.2272 137.961 93.3403 138.886C93.3967 139.281 93.4284 139.68 93.4353 140.079C93.3946 140.531 93.4353 141.947 93.4353 141.947L93.6412 146.194C93.5067 146.639 93.4373 147.102 93.4353 147.567C93.476 148.108 94.2656 155.85 94.2656 155.85C94.2656 155.85 95.6388 160.469 95.1705 160.802C94.7022 161.134 95.8357 165.308 95.8357 165.308Z" fill="#F44E4E"/>
<path opacity="0.1" d="M85.7617 54.6066C85.6033 55.0093 85.5784 55.7084 85.6214 56.4912C84.3726 57.2432 82.937 57.6277 81.4795 57.6004C80.022 57.5732 78.6017 57.1354 77.3819 56.3373C77.3147 55.2255 77.181 54.1188 76.9814 53.023C76.9814 53.023 86.3046 53.2288 85.7617 54.6066Z" fill="black"/>
<path d="M89.3655 49.6068C89.3673 50.422 89.239 51.2324 88.9854 52.0072C88.4186 53.7432 87.2563 55.223 85.704 56.185C84.1516 57.147 82.3092 57.5292 80.5023 57.2642C78.6954 56.9991 77.0404 56.1038 75.8297 54.7366C74.6191 53.3693 73.9307 51.618 73.8864 49.7923C73.8864 49.729 73.8864 49.6701 73.8864 49.6068C73.8688 48.5791 74.0561 47.5583 74.4372 46.6037C74.8183 45.6492 75.3857 44.7801 76.1062 44.0472C76.8267 43.3142 77.686 42.7321 78.6339 42.3347C79.5817 41.9373 80.5993 41.7327 81.6271 41.7327C82.6549 41.7327 83.6724 41.9373 84.6203 42.3347C85.5681 42.7321 86.4274 43.3142 87.1479 44.0472C87.8685 44.7801 88.4358 45.6492 88.8169 46.6037C89.1981 47.5583 89.3853 48.5791 89.3677 49.6068H89.3655Z" fill="#CF6F80"/>
<path opacity="0.1" d="M82.8501 66.5971C79.8637 65.4365 76.0223 61.6018 76.9815 59.81C77.1945 59.3579 77.3211 58.8699 77.3548 58.3712L81.4429 61.7308L83.9722 63.8054L85.8952 58.9096C86.0581 59.9367 86.221 60.7195 86.221 60.7195C86.221 60.7195 85.6509 61.5181 85.316 61.5611C84.9812 61.6041 87.135 68.2509 82.8501 66.5971Z" fill="black"/>
<path d="M93.4221 81.445L90.0082 138.796L85.5559 139.088L74.0269 105.833L75.9182 66.3528L76.3164 58.0115L81.4429 62.2217L83.9745 64.2963L85.954 59.258L89.6349 62.4661L93.4221 81.445Z" fill="#F44E4E"/>
<path opacity="0.1" d="M78.6872 139.085C78.5356 139.46 78.4204 139.849 78.3433 140.246C75.1036 139.746 71.9572 138.763 69.0088 137.33L68.9478 137.298L68.9681 136.934L68.9794 136.744L70.1106 134.635C70.1106 134.635 79.2302 137.757 78.6872 139.085Z" fill="black"/>
<path opacity="0.1" d="M86.721 140.255C85.8928 140.396 85.0575 140.491 84.2188 140.54C84.1691 139.409 84.1396 138.631 84.1396 138.631L86.6554 138.124L86.721 140.255Z" fill="black"/>
<path opacity="0.1" d="M93.3267 138.898C91.7182 139.316 89.2341 139.787 87.0102 139.493L86.9785 138.058L93.0462 136.841C93.0462 136.841 93.2136 137.961 93.3267 138.898Z" fill="black"/>
<path opacity="0.1" d="M86.9695 139.755C77.6938 141.339 69.1987 136.798 69.1987 136.798L69.2801 135.26C69.2801 135.26 69.4905 117.819 68.9068 116.482C68.3231 115.145 67.8684 108.365 68.1987 107.324C68.529 106.283 66.9929 90.6777 66.9929 90.6777L66.744 84.3431L57.6357 80.6532L61.708 72.1648C62.258 70.9747 62.7311 69.7505 63.1242 68.4998C63.8324 66.2962 67.1196 64.1312 67.1196 64.1312C67.1196 64.1312 70.4905 61.9683 71.823 62.0498C73.1555 62.1312 74.9021 60.1358 74.9021 60.1358C76.1916 56.8486 77.359 58.3373 77.359 58.3373C77.359 58.4934 77.359 58.3373 77.2957 58.8237C76.8432 62.4321 84.6121 73.8344 84.723 74.0358L85.4628 92.0578L86.2116 114.865L86.9695 139.755Z" fill="black"/>
<path d="M86.7209 139.755C77.4453 141.339 68.9478 136.798 68.9478 136.798L69.0315 135.26C69.0315 135.26 69.2419 117.819 68.656 116.482C68.07 115.145 67.6176 108.365 67.9501 107.324C68.2827 106.283 66.7443 90.6777 66.7443 90.6777L66.4932 84.3431L57.3804 80.6396L61.4526 72.1512C62.0015 70.9606 62.4745 69.7365 62.8689 68.4862C63.5747 66.2827 66.8642 64.1176 66.8642 64.1176C66.8642 64.1176 70.2351 61.9548 71.5654 62.0362C72.8956 62.1177 74.6444 60.1223 74.6444 60.1223C75.9363 56.835 77.3593 58.3237 77.3593 58.3237C77.3593 58.4798 77.2235 58.5499 77.2959 58.8101C78.2914 62.31 84.3636 73.8209 84.4744 74.0222L85.2233 92.0442L85.9721 114.851L86.7209 139.755Z" fill="white"/>
<path opacity="0.1" d="M84.2207 74.5358C83.223 74.1195 77.9381 68.0858 77.9381 68.0858V66.7125C77.7458 66.26 76.6033 66.5361 75.6758 66.8528L76.074 58.5115L76.5264 58.887C77.5173 62.3846 84.1053 74.3344 84.2207 74.5358Z" fill="black"/>
<path d="M84.472 74.0358C83.472 73.6195 78.1872 67.5858 78.1872 67.5858V66.2125C77.9949 65.7601 76.8524 66.0361 75.9248 66.3528L76.3252 58.0115L76.7777 58.387C77.7709 61.8846 84.3611 73.8367 84.472 74.0358Z" fill="white"/>
<path opacity="0.1" d="M69.199 104.127C69.3234 104.127 75.649 103.462 75.649 103.462C75.649 103.462 79.4791 110.994 79.228 112.826C78.9769 114.659 78.5222 116.281 76.9815 115.994C75.4408 115.706 68.6899 116.22 68.6899 116.22L69.199 104.127Z" fill="black"/>
<path d="M68.9475 103.627C69.0719 103.627 75.3975 102.962 75.3975 102.962C75.3975 102.962 79.2254 110.496 78.9766 112.326C78.7277 114.156 78.2684 115.781 76.73 115.494C75.1916 115.206 68.4385 115.72 68.4385 115.72L68.9475 103.627Z" fill="white"/>
<path d="M73.7145 100.091C73.7145 100.091 79.5197 103.211 79.6442 104.164C79.7686 105.116 76.6895 103.747 76.0244 103.582C75.5866 103.477 75.141 103.407 74.6919 103.374L70.2554 103.494L73.7145 100.091Z" fill="#CF6F80"/>
<path opacity="0.1" d="M82.6011 74.9249C82.9384 74.9249 83.2119 74.6514 83.2119 74.314C83.2119 73.9767 82.9384 73.7032 82.6011 73.7032C82.2637 73.7032 81.9902 73.9767 81.9902 74.314C81.9902 74.6514 82.2637 74.9249 82.6011 74.9249Z" fill="black"/>
<path d="M82.6011 74.676C82.9384 74.676 83.2119 74.4025 83.2119 74.0652C83.2119 73.7278 82.9384 73.4543 82.6011 73.4543C82.2637 73.4543 81.9902 73.7278 81.9902 74.0652C81.9902 74.4025 82.2637 74.676 82.6011 74.676Z" fill="#3F3D56"/>
<path opacity="0.1" d="M83.7256 101.367C84.0629 101.367 84.3364 101.094 84.3364 100.757C84.3364 100.419 84.0629 100.146 83.7256 100.146C83.3882 100.146 83.1147 100.419 83.1147 100.757C83.1147 101.094 83.3882 101.367 83.7256 101.367Z" fill="black"/>
<path d="M83.7256 101.116C84.0629 101.116 84.3364 100.843 84.3364 100.505C84.3364 100.168 84.0629 99.8946 83.7256 99.8946C83.3882 99.8946 83.1147 100.168 83.1147 100.505C83.1147 100.843 83.3882 101.116 83.7256 101.116Z" fill="#3F3D56"/>
<path opacity="0.1" d="M83.2095 88.1461C83.5468 88.1461 83.8203 87.8727 83.8203 87.5353C83.8203 87.1979 83.5468 86.9245 83.2095 86.9245C82.8721 86.9245 82.5986 87.1979 82.5986 87.5353C82.5986 87.8727 82.8721 88.1461 83.2095 88.1461Z" fill="black"/>
<path d="M83.2095 87.8973C83.5468 87.8973 83.8203 87.6238 83.8203 87.2864C83.8203 86.9491 83.5468 86.6756 83.2095 86.6756C82.8721 86.6756 82.5986 86.9491 82.5986 87.2864C82.5986 87.6238 82.8721 87.8973 83.2095 87.8973Z" fill="#3F3D56"/>
<path d="M97.2904 103.247C97.2904 103.247 97.7066 103.872 97.2904 104.164C96.8741 104.455 97.3311 105.161 97.3311 105.161C97.3311 105.161 96.2927 105.77 96.7497 106.317C97.2067 106.865 96.9171 109.338 96.9171 109.338L95.6682 111.405C95.6682 111.405 95.7429 112.738 95.7474 114.539C95.7474 117.349 95.5823 121.299 94.6683 123.1L94.795 137.875C94.795 137.875 90.4218 139.472 86.7613 138.986L86.2184 115.276C86.2184 115.276 87.0102 101.831 87.302 99.2521C87.4728 97.9131 87.5424 96.5632 87.5102 95.2137C87.5102 95.2137 87.3857 91.1777 86.9672 89.3045C86.9672 89.3045 86.5147 81.1894 86.4695 78.9428C86.4491 77.8682 86.5057 74.7326 86.569 71.7508C86.6392 68.4907 86.7183 65.4162 86.7183 65.4162L85.8926 58.8825C85.8926 58.8825 86.7183 58.7988 86.9672 59.1313C87.0787 59.2355 87.1999 59.3287 87.3292 59.4096C88.7545 60.3734 93.7905 63.3371 93.7905 63.3371C93.7905 63.3371 96.5777 64.4456 97.2451 66.0338C97.9125 67.622 98.3763 68.7486 98.6998 69.2011C99.0233 69.6536 99.1998 71.7802 99.1998 71.7802C99.1998 71.7802 100.159 75.6941 100.908 76.357C101.657 77.0198 102.204 81.2369 102.204 81.2369L95.5868 86.4403C95.5868 86.4403 95.0054 95.0961 94.8809 95.4309C94.7565 95.7658 97.2904 103.247 97.2904 103.247Z" fill="white"/>
<path d="M97.5417 103.247C97.5417 103.247 97.9557 103.872 97.5417 104.164C97.1277 104.455 97.5802 105.161 97.5802 105.161C97.5802 105.161 96.5485 105.777 97.001 106.324C97.4535 106.872 97.1684 109.344 97.1684 109.344L95.9196 111.412C95.9196 111.412 95.9942 112.745 96.001 114.546C96.001 117.355 95.8359 121.306 94.9219 123.106L95.0463 137.882C95.0463 137.882 90.6664 139.479 87.0104 138.993L86.4697 115.283C86.4697 115.283 87.2615 101.838 87.5534 99.2588C87.7243 97.9199 87.7932 96.5699 87.7592 95.2205C87.7592 95.2205 87.6348 91.1845 87.2185 89.3112C87.2185 89.3112 86.7661 81.1962 86.7186 78.9496C86.6982 77.875 86.757 74.7394 86.8181 71.7576C86.8882 68.4975 86.9674 65.423 86.9674 65.423L85.877 58.801C85.877 58.801 86.9674 58.801 87.2185 59.1381C87.329 59.2435 87.4503 59.3368 87.5805 59.4164C89.0058 60.3802 94.0441 63.3439 94.0441 63.3439C94.0441 63.3439 96.829 64.4524 97.4964 66.0406C98.1638 67.6288 98.6276 68.7554 98.9534 69.2079C99.2792 69.6604 99.4511 71.787 99.4511 71.787C99.4511 71.787 100.41 75.7009 101.159 76.3637C101.908 77.0266 102.449 81.2346 102.449 81.2346L95.8313 86.438C95.8313 86.438 95.2499 95.0938 95.1232 95.4287C94.9965 95.7635 97.5417 103.247 97.5417 103.247Z" fill="white"/>
<path opacity="0.1" d="M89.6165 67.3437L90.2138 69.0857L87.0691 72.253C87.1392 68.9952 87.2184 65.9184 87.2184 65.9184L86.1279 59.2965C86.1279 59.2965 87.2184 59.2965 87.4695 59.6336C87.5796 59.7387 87.701 59.8312 87.8315 59.9096L90.5056 67.6242L89.6165 67.3437Z" fill="black"/>
<path d="M89.3655 66.8437L89.965 68.5858L86.8204 71.7531C86.8905 68.493 86.9697 65.4184 86.9697 65.4184L85.877 58.7965C85.877 58.7965 86.9697 58.7965 87.2185 59.1336C87.3295 59.2383 87.4508 59.3316 87.5805 59.4119L90.2569 67.1243L89.3655 66.8437Z" fill="white"/>
<path opacity="0.1" d="M89.3655 49.6068C89.3673 50.422 89.239 51.2324 88.9854 52.0072C88.9426 52.0138 88.899 52.0119 88.857 52.0014C88.8151 51.9909 88.7756 51.9721 88.741 51.9461C88.6822 49.91 87.68 47.9983 86.447 46.3716C86.1009 45.8805 85.6812 45.4456 85.2027 45.0821C84.719 44.7188 84.1173 44.5486 83.515 44.6047C82.8363 44.6975 82.2368 45.159 81.5513 45.2178C80.6463 45.2925 79.8364 44.6658 78.9382 44.6341C78.5731 44.6376 78.2129 44.7189 77.8817 44.8726C77.5505 45.0263 77.2559 45.2489 77.0175 45.5255C76.5457 46.0837 76.1951 46.7339 75.9881 47.4349C75.6324 48.4979 75.4387 49.6083 75.4135 50.7289C75.4022 51.3624 75.3411 52.1565 74.7529 52.3872C74.7972 51.9214 74.7442 51.4514 74.5974 51.007C74.4506 50.5627 74.2131 50.1537 73.9 49.8059L73.8864 49.7923C73.8864 49.729 73.8864 49.6701 73.8864 49.6068C73.8688 48.5791 74.0561 47.5583 74.4372 46.6037C74.8183 45.6492 75.3857 44.7801 76.1062 44.0472C76.8267 43.3142 77.686 42.7321 78.6339 42.3347C79.5817 41.9373 80.5993 41.7327 81.6271 41.7327C82.6549 41.7327 83.6724 41.9373 84.6203 42.3347C85.5681 42.7321 86.4274 43.3142 87.1479 44.0472C87.8685 44.7801 88.4358 45.6492 88.8169 46.6037C89.1981 47.5583 89.3853 48.5791 89.3677 49.6068H89.3655Z" fill="black"/>
<path d="M84.8318 37.3154C83.6562 36.7624 82.319 36.6578 81.0717 37.0213C80.4451 37.2068 79.8546 37.5077 79.2189 37.6593C77.8614 37.9873 76.2778 37.6321 75.1127 38.4262C74.4656 38.8787 74.0765 39.5936 73.7145 40.2881L72.8096 42.012C72.3164 42.9554 71.8187 43.9147 71.6128 44.9531C71.4069 45.9915 71.5314 47.1544 72.1897 47.9892C72.6693 48.5978 73.3774 48.9801 73.8978 49.5525C74.2095 49.9007 74.446 50.3094 74.5924 50.7532C74.7387 51.197 74.7919 51.6663 74.7484 52.1316C75.3389 51.9054 75.3955 51.109 75.409 50.4755C75.4343 49.3549 75.628 48.2445 75.9837 47.1815C76.1902 46.4804 76.5408 45.83 77.0131 45.2721C77.2516 44.9957 77.5463 44.7733 77.8774 44.6196C78.2086 44.4659 78.5687 44.3845 78.9338 44.3807C79.8387 44.4124 80.6509 45.0368 81.5468 44.9622C82.2255 44.9056 82.8273 44.4418 83.5106 44.3513C84.113 44.2943 84.715 44.4646 85.1983 44.8287C85.6766 45.1916 86.0956 45.6266 86.4403 46.1182C87.6756 47.7449 88.6778 49.652 88.7366 51.6927C88.9923 51.8805 89.361 51.6361 89.4877 51.3465C89.6144 51.057 89.6189 50.7176 89.7796 50.4416C89.9651 50.1226 90.3203 49.9529 90.5985 49.7131C91.3044 49.1045 91.4809 48.0797 91.4537 47.1499C91.4266 46.22 91.2456 45.2766 91.422 44.3626C91.5284 43.8016 91.7682 43.2767 91.8994 42.7224C92.0306 42.1681 92.0464 41.546 91.7365 41.0686C91.284 40.3673 90.3316 40.2293 89.5013 40.1637C88.5579 40.0823 87.714 40.1863 87.1122 39.3922C86.8298 38.9778 86.5118 38.5888 86.162 38.2294C86.0421 38.1117 84.8318 37.3652 84.8318 37.3154Z" fill="#512E4E"/>
<path opacity="0.1" d="M60.2424 85.0241L57.8782 80.6532L57.1294 87.3973C57.1294 87.3973 57.5457 90.3927 57.462 90.8519C57.3783 91.3112 59.1678 95.4287 59.1678 95.4287C59.1678 95.4287 65.0793 105.958 67.4933 106.501L75.6491 100.673L73.4863 97.9263C73.4863 97.9263 72.7374 97.6345 72.5497 97.9263C72.5497 97.9263 68.534 91.0171 68.1177 90.5171C67.7014 90.0171 67.7829 89.0194 67.7829 89.0194C67.7829 89.0194 67.1584 88.3543 67.3666 87.7299C67.5747 87.1054 66.1607 84.9404 66.1607 84.9404L67.4503 83.7345L60.2424 85.0241Z" fill="black"/>
<path d="M58.0026 80.1555L57.3782 80.6532L56.6294 87.3973C56.6294 87.3973 57.0457 90.3926 56.962 90.8519C56.8783 91.3112 58.67 95.4287 58.67 95.4287C58.67 95.4287 64.5793 105.958 66.9933 106.501L75.1514 100.673L72.9863 97.9263C72.9863 97.9263 72.2374 97.6345 72.0497 97.9263C72.0497 97.9263 68.034 91.0171 67.6177 90.5171C67.2014 90.0171 67.2851 89.0194 67.2851 89.0194C67.2851 89.0194 66.6607 88.3543 66.8688 87.7299C67.077 87.1054 65.6607 84.9404 65.6607 84.9404L66.9503 83.7345L58.0026 80.1555Z" fill="white"/>
<path opacity="0.1" d="M96.7497 106.575C97.2021 107.125 96.9171 109.593 96.9171 109.593L95.6683 111.661C95.6683 111.661 95.7429 112.996 95.7474 114.794L93.648 115.451C93.4582 115.51 93.2571 115.523 93.0613 115.489C92.8655 115.454 92.6807 115.374 92.5224 115.253C92.3641 115.133 92.2369 114.977 92.1513 114.797C92.0657 114.618 92.0242 114.421 92.0304 114.222L92.3924 102.546L97.2904 104.419C96.8741 104.709 97.3311 105.419 97.3311 105.419C97.3311 105.419 96.2927 106.026 96.7497 106.575Z" fill="black"/>
<path d="M97.0009 106.324C97.4534 106.874 97.1683 109.344 97.1683 109.344L95.9195 111.412C95.9195 111.412 95.9942 112.745 96.0009 114.546L93.863 115.213C93.6772 115.271 93.4803 115.283 93.2886 115.25C93.097 115.216 92.9162 115.137 92.7613 115.019C92.6063 114.901 92.4818 114.748 92.398 114.573C92.3141 114.397 92.2735 114.204 92.2794 114.009L92.6436 102.297L97.5439 104.17C97.1253 104.46 97.5823 105.168 97.5823 105.168C97.5823 105.168 96.5484 105.777 97.0009 106.324Z" fill="white"/>
<path d="M98.623 100.759C98.623 100.759 98.2904 102.883 97.4579 103.008C96.6253 103.132 96.252 106.444 95.4218 106.326C94.5915 106.209 95.1412 103.247 95.1706 102.673C95.2 102.098 94.2657 99.7181 94.9648 99.1774C95.6638 98.6367 97.8764 99.1774 97.8764 99.1774L98.623 100.759Z" fill="#CF6F80"/>
<path opacity="0.1" d="M100.395 84.3997L101.965 81.2323C101.965 81.2323 102.589 83.6463 102.589 84.9358C102.589 86.2254 103.462 86.3521 103.462 86.3521C103.462 86.3521 104.419 87.4832 103.915 88.3067C103.41 89.1302 103.207 91.1799 103.207 91.1799C103.207 91.1799 103.372 95.0916 102.623 95.6323C101.874 96.173 101.718 97.4648 101.718 97.4648C101.718 97.4648 100.343 99.9195 100.386 100.503C100.429 101.087 98.4716 105.039 98.4716 105.039C98.4716 105.039 99.4286 100.128 93.8518 98.0055C93.8518 98.0055 93.8089 96.3381 94.2251 95.8811C94.6414 95.4241 95.2907 95.216 94.8835 92.9061C94.4763 90.5963 94.7658 87.8362 94.7658 87.2819C94.7658 86.7276 96.0147 83.2707 96.0147 83.2707L100.395 84.3997Z" fill="black"/>
<path d="M101.073 80.7799L102.444 81.2323C102.444 81.2323 103.071 83.6463 103.071 84.9358C103.071 86.2254 103.944 86.3521 103.944 86.3521C103.944 86.3521 104.901 87.4833 104.397 88.3068C103.892 89.1302 103.691 91.18 103.691 91.18C103.691 91.18 103.856 95.0916 103.107 95.6323C102.358 96.173 102.191 97.4648 102.191 97.4648C102.191 97.4648 100.818 99.9195 100.861 100.503C100.904 101.087 98.9446 105.039 98.9446 105.039C98.9446 105.039 99.9038 100.128 94.3248 98.0055C94.3248 98.0055 94.2841 96.3381 94.7004 95.8811C95.1166 95.4241 95.7659 95.216 95.3587 92.9061C94.9515 90.5963 95.2411 87.8362 95.2411 87.2819C95.2411 86.7276 96.4899 83.2707 96.4899 83.2707L101.073 80.7799Z" fill="white"/>
<path opacity="0.1" d="M70.7915 162.874C70.7915 162.874 72.9769 161.501 74.4113 162.499C75.8456 163.496 70.7915 162.874 70.7915 162.874Z" fill="black"/>
<path opacity="0.1" d="M87.7729 158.628C87.7729 158.628 89.7073 158.379 91.3316 160.128C92.956 161.876 87.7729 158.628 87.7729 158.628Z" fill="black"/>
<g opacity="0.1">
<path d="M90.6029 49.2177C90.3246 49.4575 89.9672 49.6294 89.7817 49.9484C89.6233 50.2222 89.6188 50.5593 89.4921 50.8534C89.3654 51.1475 88.9966 51.3873 88.741 51.2018C88.6822 49.1656 87.6777 47.2539 86.4447 45.625C86.1 45.1335 85.681 44.6984 85.2027 44.3355C84.7184 43.9714 84.1158 43.8012 83.5127 43.8581C82.834 43.9509 82.2367 44.4124 81.5512 44.469C80.6463 44.5459 79.8341 43.9192 78.9359 43.8875C78.5709 43.8912 78.2109 43.9728 77.88 44.1269C77.5492 44.281 77.2551 44.5041 77.0174 44.7812C76.5451 45.3382 76.1945 45.9878 75.988 46.6883C75.6325 47.7514 75.4388 48.8618 75.4134 49.9823C75.3998 50.6135 75.341 51.4008 74.7573 51.6361C74.7709 51.8033 74.7709 51.9712 74.7573 52.1384C75.3455 51.9121 75.4044 51.1158 75.4179 50.4823C75.4431 49.3617 75.6369 48.2513 75.9926 47.1883C76.1991 46.4871 76.5497 45.8368 77.022 45.2789C77.2601 45.0026 77.5543 44.7802 77.8851 44.6265C78.2159 44.4728 78.5757 44.3913 78.9404 44.3875C79.8454 44.4192 80.6598 45.0436 81.5557 44.969C82.2344 44.9124 82.8362 44.4486 83.5172 44.3581C84.1203 44.3012 84.723 44.4714 85.2072 44.8355C85.6855 45.1984 86.1045 45.6334 86.4492 46.125C87.6822 47.7517 88.6867 49.6588 88.7455 51.6995C89.0012 51.8873 89.3699 51.6429 89.4966 51.3533C89.6233 51.0638 89.6278 50.7244 89.7862 50.4484C89.9717 50.1294 90.3292 49.9597 90.6074 49.7199C91.3133 49.1113 91.4897 48.0865 91.4626 47.1567C91.4626 47.1272 91.4626 47.0978 91.4626 47.0707C91.4196 47.8761 91.2047 48.6973 90.6029 49.2177Z" fill="black"/>
<path d="M73.9024 49.057C73.3821 48.4847 72.6717 48.1023 72.1943 47.496C71.7924 46.9593 71.5628 46.3132 71.536 45.6431C71.4648 46.4804 71.6986 47.3152 72.1943 47.9937C72.6717 48.6023 73.3821 48.9846 73.9024 49.557C74.402 50.1169 74.7019 50.8266 74.7553 51.5751C74.7899 51.1195 74.7323 50.6617 74.5857 50.2291C74.4391 49.7964 74.2067 49.3977 73.9024 49.057Z" fill="black"/>
<path d="M91.9041 42.227C91.7706 42.7813 91.5331 43.3084 91.4245 43.8672C91.3602 44.2406 91.3366 44.6199 91.3543 44.9984C91.3619 44.7828 91.3853 44.568 91.4245 44.3559C91.5331 43.7948 91.7706 43.2699 91.9041 42.7156C91.9819 42.4099 92.0071 42.0932 91.9787 41.779C91.9647 41.9299 91.9397 42.0797 91.9041 42.227Z" fill="black"/>
</g>
<path opacity="0.1" d="M30.0283 172.073C42.2031 172.073 52.0728 170.488 52.0728 168.532C52.0728 166.577 42.2031 164.992 30.0283 164.992C17.8535 164.992 7.98389 166.577 7.98389 168.532C7.98389 170.488 17.8535 172.073 30.0283 172.073Z" fill="#F44E4E"/>
<path d="M30.7388 100.707H29.3203V132.645H30.7388V100.707Z" fill="#535461"/>
<path d="M39.6524 132.547L39.5641 133.986L39.4374 136.022L39.3854 136.868L39.261 138.904L39.2067 139.751L39.08 141.787L37.6502 164.879C37.588 165.872 37.1496 166.805 36.4242 167.486C35.6988 168.168 34.7408 168.548 33.7453 168.548H26.3112C25.316 168.548 24.3583 168.168 23.6332 167.486C22.9082 166.805 22.4702 165.872 22.4086 164.879L20.9856 141.771L20.8589 139.735L20.8069 138.889L20.6802 136.853L20.6282 136.006L20.5015 133.97L20.411 132.531C20.3953 132.254 20.4363 131.977 20.5316 131.717C20.6268 131.456 20.7743 131.218 20.965 131.016C21.1556 130.815 21.3854 130.655 21.6403 130.545C21.8952 130.436 22.1697 130.379 22.4471 130.38H37.6524C37.9288 130.382 38.2017 130.441 38.4543 130.553C38.707 130.665 38.934 130.828 39.1214 131.031C39.3088 131.234 39.4526 131.473 39.5439 131.734C39.6353 131.995 39.6722 132.272 39.6524 132.547Z" fill="#3F3D56"/>
<path d="M39.5644 133.986L39.4377 136.015H20.6194L20.4927 133.986H39.5644Z" fill="#9D9CB5"/>
<path d="M39.3856 136.862L39.2612 138.893H20.7981L20.6714 136.862H39.3856Z" fill="#9D9CB5"/>
<path d="M39.2069 139.742L39.0825 141.771H20.9768L20.8501 139.742H39.2069Z" fill="#9D9CB5"/>
<path d="M18.3272 112.677C26.5871 118.654 30.035 128.002 30.035 128.002C30.035 128.002 20.0806 127.661 11.8184 121.683C3.55629 115.706 0.115234 106.36 0.115234 106.36C0.115234 106.36 10.0651 106.7 18.3272 112.677Z" fill="#F44E4E"/>
<path d="M0.108398 106.36C0.108398 106.36 10.4429 112.095 13.7572 116.844C17.0716 121.593 30.0349 128.002 30.0349 128.002" stroke="#535461" stroke-width="2" stroke-miterlimit="10"/>
<path d="M23.6598 100.637C28.1551 103.888 30.0351 108.976 30.0351 108.976C30.0351 108.976 24.6167 108.79 20.1192 105.539C15.6216 102.288 13.7461 97.1978 13.7461 97.1978C13.7461 97.1978 19.1622 97.3833 23.6598 100.637Z" fill="#F44E4E"/>
<path d="M13.7461 97.1978C13.7461 97.1978 19.3703 100.32 21.1734 102.903C22.9765 105.487 30.0351 108.976 30.0351 108.976" stroke="#535461" stroke-width="2" stroke-miterlimit="10"/>
<path d="M36.5619 108.718C31.3969 114.394 30.3042 121.812 30.3042 121.812C30.3042 121.812 37.5867 120.025 42.7472 114.347C47.9076 108.668 49.0049 101.252 49.0049 101.252C49.0049 101.252 41.7269 103.042 36.5619 108.718Z" fill="#F44E4E"/>
<path d="M49.0094 101.254C49.0094 101.254 42.2811 107.073 40.5708 111.082C38.8605 115.091 30.3042 121.812 30.3042 121.812" stroke="#535461" stroke-width="2" stroke-miterlimit="10"/>
<path d="M226.162 106.72C226.162 106.72 222.427 88.1371 223.856 85.8249C223.856 85.8249 223.908 83.6757 223.822 80.936C223.822 80.8319 223.822 80.7278 223.822 80.6215C224.074 80.7892 224.336 80.9404 224.607 81.074C225.925 81.7508 227.437 81.946 228.883 81.626L227.752 80.3659C227.481 80.065 227.198 79.7392 227.139 79.341C227.08 78.9428 227.243 78.5876 227.383 78.2325C228.458 75.5176 228.515 72.1037 226.445 70.0314C224.696 68.2894 224.27 66.0406 222.372 64.4502C220.985 63.285 220.223 61.577 219.504 59.9254C218.895 58.5296 218.282 57.1224 217.933 55.6428C217.662 54.4867 217.553 53.2899 217.18 52.161C216.807 51.0321 216.108 49.9348 215.015 49.4303C214.626 49.2516 214.194 49.1498 213.839 48.9122C213.373 48.5978 213.092 48.0865 212.755 47.6385C211.042 45.3762 205.307 46.7087 202.592 47.6272C201.854 47.8585 201.171 48.2372 200.583 48.7403L200.608 48.6996C200.629 48.6657 200.654 48.6317 200.676 48.5978C200.379 48.8381 200.122 49.1245 199.916 49.4462C199.52 50.0728 199.355 50.8036 199.025 51.4823C198.627 52.2854 196.412 54.5274 197.364 55.4301C197.431 55.4907 197.507 55.5397 197.59 55.5749C197.948 55.7237 198.342 55.7631 198.722 55.688L198.681 55.7853C198.356 56.5817 198.189 57.434 198.19 58.2943C198.19 62.0113 201.255 65.0248 205.04 65.0248C205.752 65.0255 206.459 64.9164 207.138 64.7013C207.153 64.7872 207.167 64.8732 207.183 64.9592C207.183 64.9931 207.194 65.0271 207.199 65.061L207.079 65.2284C207.073 65.2181 207.066 65.2082 207.058 65.199L203.506 70.1626C202.963 70.545 199.837 72.8073 199.66 74.5041C199.475 76.3615 199.289 78.5356 199.289 78.5356L199.264 79.0017C199.109 79.1314 198.928 79.2259 198.732 79.2786C198.537 79.3313 198.333 79.341 198.133 79.3071C197.025 79.1261 197.025 83.3793 197.025 83.3793C197.025 83.3793 196.287 84.058 195.78 83.4698C195.274 82.8816 193.934 84.8748 193.934 84.8748L185.541 85.2367L185.349 85.248L184.896 83.8476C184.848 83.6999 184.743 83.5774 184.604 83.5066C184.465 83.4359 184.305 83.4227 184.156 83.4698C184.121 83.4814 184.087 83.4957 184.055 83.5128L184.023 83.5309L183.964 83.5716L183.935 83.5988C183.919 83.6135 183.903 83.6294 183.889 83.6463L183.862 83.678L183.849 83.6915C183.797 83.7638 183.762 83.8472 183.748 83.9352C183.734 84.0232 183.74 84.1133 183.767 84.1983L184.156 85.3996C182.537 85.7254 180.881 86.6439 182.231 89.1732L175.385 87.9086L177.6 89.7682L189.034 92.1279C188.883 92.3994 188.982 92.793 189.455 93.3473C191.491 95.7386 195.201 96.3879 196.694 96.5553C197.089 97.4374 197.581 98.2722 198.163 99.0439L198.034 101.426C198.034 101.426 194.253 119.584 193.561 120.505C193.911 120.109 194.23 119.688 194.518 119.245C193.421 122.975 191.887 128.081 191.484 128.846C190.837 130.068 190.238 135.011 190.975 135.328C191.201 135.425 191.848 135.377 192.772 135.307V135.717L192.731 151.234C192.731 151.234 192.916 160.752 192.407 161.659C191.898 162.567 191.762 164.469 191.762 164.469C191.762 164.469 189.726 168.222 188.113 169.731C188.102 169.743 188.09 169.754 188.077 169.763L188.027 169.41C188.027 169.41 186.088 171.858 181.799 171.72C181.799 171.72 179.218 173.399 183.046 173.489C186.874 173.58 191.762 173.353 191.762 173.353C191.762 173.353 195.176 168.15 198.036 168.829V172.772H198.912V168.765C199.318 168.498 199.665 168.151 199.933 167.745C200.201 167.34 200.384 166.884 200.47 166.406C200.545 165.913 200.49 165.409 200.311 164.943C200.132 164.478 199.834 164.067 199.448 163.752C199.274 163.595 199.135 163.404 199.039 163.191C198.943 162.977 198.892 162.746 198.889 162.512L198.857 162.539C198.857 162.46 198.837 162.379 198.828 162.295C198.577 160.259 198.262 156.058 199.373 152.949C200.896 148.687 201.357 142.75 200.249 139.217C199.891 138.087 199.597 136.938 199.369 135.776C199.341 135.629 199.317 135.488 199.294 135.357C200.052 135.46 200.802 135.611 201.54 135.81C204.108 136.518 209.726 136.649 214.522 136.61C214.533 136.742 214.547 136.88 214.563 137.018C214.648 137.977 214.827 138.926 215.096 139.85C215.698 141.66 215.974 149.639 215.974 149.639C215.974 149.639 216.75 156.2 216.327 158.87C216.101 160.354 215.875 161.845 215.746 163.342V163.372C215.746 163.372 214.474 166.992 213.545 168.958C213.522 169.007 213.497 169.057 213.474 169.105C213.226 169.127 212.982 169.181 212.748 169.265C212.748 169.265 211.502 171.754 210.26 172.166C209.018 172.577 209.429 173.933 212.241 173.435C215.054 172.937 219.3 172.53 219.3 172.53L219.483 169.992L220.347 168.91L220.121 171.442L221.042 171.261L220.92 168.182L222.334 166.413C222.334 166.413 224.042 164.892 221.503 161.901V161.967C221.476 161.924 221.451 161.879 221.422 161.836V161.822C221.001 161.171 220.666 159.956 221.28 157.8C222.388 153.904 223.033 150.368 223.033 150.368C223.033 150.368 225.508 140.895 222.533 136.414H222.664C222.359 135.783 222.144 135.113 222.024 134.423C222.009 134.341 221.995 134.258 221.983 134.172C224.184 134.045 226.345 133.647 228.107 132.787C228.101 132.778 227.04 110.299 226.162 106.72ZM198.215 91.0419V91.0872L197.762 91.1098L198.215 91.0419ZM196.663 91.2569C196.588 91.2734 196.519 91.3066 196.459 91.3542C196.265 91.6294 196.142 91.9492 196.104 92.284L195.398 92.1256C195.398 92.1256 194.903 92.0193 194.19 91.8994L193.853 91.56C194.78 91.4831 195.744 91.37 196.663 91.2569Z" fill="url(#paint1_linear_2125_390)"/>
<path d="M220.017 168.213L219.748 171.419L220.65 171.238L220.515 167.761L220.017 168.213Z" fill="#F44E4E"/>
<path d="M199.423 152.992C198.334 156.092 198.642 160.275 198.886 162.306C198.977 163.057 199.061 163.514 199.061 163.514C199.061 163.514 197.434 167.22 197.298 167.36C197.162 167.501 192.511 170.34 192.511 170.34L189.26 172.238C189.26 172.238 185.961 170.792 187.543 170.295C187.866 170.165 188.157 169.967 188.396 169.713C189.979 168.209 191.968 164.469 191.968 164.469C191.968 164.469 192.104 162.571 192.602 161.668C193.099 160.766 192.918 151.28 192.918 151.28L192.957 135.816V133.801L199.144 133.846C199.183 134.53 199.273 135.211 199.411 135.882C199.633 137.041 199.921 138.186 200.273 139.312C201.364 142.839 200.911 148.746 199.423 152.992Z" fill="#FFB0B1"/>
<path opacity="0.1" d="M199.061 163.514C199.061 163.514 197.434 167.22 197.298 167.36C197.162 167.501 192.511 170.34 192.511 170.34L189.26 172.238C189.26 172.238 185.961 170.792 187.543 170.295C187.866 170.165 188.157 169.967 188.396 169.713L188.536 170.702L189.62 170.657L198.895 162.311C198.977 163.057 199.061 163.514 199.061 163.514Z" fill="black"/>
<path d="M198.948 162.521L189.62 170.924L188.536 170.969L188.31 169.385C188.31 169.385 186.414 171.824 182.202 171.688C182.202 171.688 179.672 173.36 183.421 173.451C187.17 173.541 191.957 173.315 191.957 173.315C191.957 173.315 195.301 168.112 198.099 168.79V172.72H198.959V168.754C199.359 168.485 199.7 168.138 199.962 167.733C200.224 167.329 200.401 166.876 200.484 166.401C200.558 165.912 200.506 165.412 200.331 164.949C200.156 164.487 199.865 164.077 199.486 163.759C199.317 163.6 199.182 163.408 199.089 163.196C198.996 162.983 198.948 162.753 198.948 162.521Z" fill="#F44E4E"/>
<path d="M220.877 157.825C220.275 159.974 220.603 161.184 221.015 161.833V161.847C221.543 162.649 221.91 163.545 222.096 164.487L222.132 164.691L217.888 170.878L215.585 171.783C215.585 171.783 211.882 170.519 212.558 170.157C212.728 170.068 212.992 169.598 213.296 168.949C214.201 166.992 215.449 163.381 215.449 163.381V163.352C215.581 161.861 215.789 160.374 216.02 158.895C216.434 156.232 215.673 149.696 215.673 149.696C215.673 149.696 215.402 141.748 214.814 139.941C214.548 139.022 214.372 138.079 214.287 137.126C214.164 135.995 214.137 135.063 214.137 135.063C214.137 135.063 216.576 131.669 221.047 135.334C221.404 135.627 221.719 135.968 221.981 136.348C225.069 140.741 222.583 150.42 222.583 150.42C222.583 150.42 221.96 153.94 220.877 157.825Z" fill="#FFB0B1"/>
<path opacity="0.1" d="M222.139 164.691L217.895 170.878L215.592 171.783C215.592 171.783 211.888 170.519 212.564 170.157C212.734 170.068 212.999 169.598 213.302 168.949C214.87 168.935 215.682 170.428 215.682 170.428L217.668 170.111C217.668 170.111 220.288 164.962 220.876 164.648C221.465 164.333 220.967 162.297 220.967 162.297V161.779C220.983 161.797 220.996 161.818 221.014 161.836V161.849C221.543 162.651 221.91 163.548 222.096 164.49L222.139 164.691Z" fill="black"/>
<path d="M215.818 170.562C215.818 170.562 214.687 168.485 212.519 169.252C212.519 169.252 211.3 171.74 210.08 172.143C208.861 172.546 209.268 173.903 212.024 173.408C214.779 172.912 218.933 172.503 218.933 172.503L219.114 169.971L221.915 166.403C221.915 166.403 223.584 164.89 221.1 161.91V162.429C221.1 162.429 221.598 164.465 221.01 164.779C220.422 165.094 217.811 170.245 217.811 170.245L215.818 170.562Z" fill="#F44E4E"/>
<path opacity="0.1" d="M199.151 133.841C199.19 134.526 199.28 135.206 199.418 135.877C196.871 135.504 194.507 135.69 192.957 135.812V133.796L199.151 133.841Z" fill="black"/>
<path opacity="0.1" d="M222.232 136.911C222.232 136.911 218.612 137.088 214.295 137.124C214.173 135.993 214.146 135.061 214.146 135.061C214.146 135.061 216.585 131.667 221.055 135.332C221.413 135.625 221.727 135.966 221.99 136.346C222.06 136.539 222.141 136.727 222.232 136.911Z" fill="black"/>
<path d="M222.232 136.504C222.232 136.504 206.377 137.271 201.545 135.916C196.712 134.561 191.923 135.735 191.201 135.42C190.48 135.106 191.065 130.181 191.699 128.961C192.332 127.742 195.807 115.41 195.807 115.41L199.151 97.9761L202.674 97.0055L202.923 96.9354L209.06 95.2431L213.558 94.0011C213.558 94.0011 222.501 128.916 221.734 131.491C221.456 132.477 221.411 133.514 221.603 134.52C221.72 135.207 221.932 135.875 222.232 136.504Z" fill="#F44E4E"/>
<path d="M187.496 86.0534C187.496 86.0534 184.328 89.447 186.726 91.3383C189.125 93.2297 190.701 91.5193 190.701 91.5193L187.496 86.0534Z" fill="#C7DAF5"/>
<path opacity="0.1" d="M187.496 86.0534C187.496 86.0534 184.328 89.447 186.726 91.3383C189.125 93.2297 190.701 91.5193 190.701 91.5193L187.496 86.0534Z" fill="black"/>
<path d="M213.085 63.742C213.085 63.742 212.714 64.095 212.155 64.6153C211.359 65.3596 210.18 66.4478 209.135 67.3596C207.687 68.6197 206.492 69.545 206.92 68.7554C207.348 67.9659 207.266 66.5904 207.053 65.3031C207.038 65.2171 207.024 65.1311 207.008 65.0474C206.832 64.102 206.599 63.1682 206.309 62.2511C206.309 62.2511 208.648 59.2286 209.942 58.0364C210.424 57.5839 210.761 57.3984 210.782 57.7128C210.804 58.1359 211.121 59.0703 211.515 60.0612C211.526 60.0928 211.537 60.1223 211.551 60.1539C211.813 60.8326 212.11 61.5295 212.37 62.1312C212.768 63.0543 213.085 63.742 213.085 63.742Z" fill="#FFB0B1"/>
<path opacity="0.1" d="M211.551 60.1539C211.331 61.3363 210.798 62.438 210.007 63.3438C209.215 64.2496 208.196 64.9262 207.053 65.3031C206.874 64.2703 206.625 63.2507 206.309 62.2511C206.309 62.2511 210.714 56.5613 210.782 57.7128C210.798 58.1495 211.141 59.1178 211.551 60.1539Z" fill="black"/>
<path opacity="0.1" d="M206.615 66.8234L207.185 66.0202C207.185 66.0202 207.563 68.3233 208.952 67.3075C210.341 66.2917 210.409 74.952 210.409 74.952L208.918 97.2431L198.145 96.5983L198.45 85.8272L199.669 80.3975L202.685 72.5042L204.479 69.8957L206.615 66.8234Z" fill="black"/>
<path d="M210.409 75.09L209.051 95.2454L208.909 97.3811L202.902 97.0214L202.676 97.0078L198.151 96.7363L198.457 85.9629L199.676 80.5333L202.692 72.6399L204.486 70.0314L206.622 66.9478L207.192 66.1469C207.192 66.1469 207.57 68.45 208.959 67.4342L208.988 67.4138C210.346 66.5541 210.409 75.09 210.409 75.09Z" fill="#F44E4E"/>
<path d="M199.828 78.6465C199.828 78.6465 199.287 79.7777 198.201 79.5944C197.115 79.4111 197.117 83.6666 197.117 83.6666C197.117 83.6666 196.396 84.3454 195.898 83.7571C195.4 83.1689 194.088 85.1575 194.088 85.1575L185.867 85.5195C185.867 85.5195 189.525 87.1914 188.808 92.25C188.808 92.25 201.228 91.4808 201.635 90.3067C202.043 89.1325 199.828 78.6465 199.828 78.6465Z" fill="white"/>
<path opacity="0.03" d="M199.828 78.6465C199.828 78.6465 199.287 79.7777 198.201 79.5944C197.115 79.4111 197.117 83.6666 197.117 83.6666C197.117 83.6666 196.396 84.3454 195.898 83.7571C195.4 83.1689 194.088 85.1575 194.088 85.1575L185.867 85.5195C185.867 85.5195 189.525 87.1914 188.808 92.25C188.808 92.25 201.228 91.4808 201.635 90.3067C202.043 89.1325 199.828 78.6465 199.828 78.6465Z" fill="black"/>
<path d="M175.935 88.1778L178.102 90.0284L195.943 93.7771L193.73 91.5193L175.935 88.1778Z" fill="white"/>
<path d="M206.649 67.536C206.352 67.9885 205.504 70.3051 204.796 72.3277C204.205 74.0131 203.712 75.495 203.712 75.495C203.712 75.495 202.561 82.9925 201.972 84.3476C201.384 85.7028 201.703 90.9876 201.703 90.9876L199.511 104.039C199.511 104.039 198.518 110.77 196.984 114.79C195.47 118.747 193.785 120.602 193.733 120.661C194.412 119.742 198.111 101.657 198.111 101.657L199.332 78.8478C199.332 78.8478 199.511 76.6805 199.692 74.8276C199.873 72.9747 203.538 70.4454 203.538 70.4454L207.072 65.4207C207.427 65.8958 207.189 66.7238 206.649 67.536Z" fill="white"/>
<path d="M197.434 96.8494C197.434 96.8494 192.231 96.6232 189.711 93.5962C187.19 90.5691 195.536 92.3881 195.536 92.3881L197.706 92.8858L197.434 96.8494Z" fill="#FFB0B1"/>
<path opacity="0.1" d="M221.734 131.493C221.456 132.479 221.411 133.516 221.603 134.522C215.927 134.925 209.855 133.391 209.855 133.391C208.723 134.432 205.744 135.966 205.744 135.966L204.119 115.831C203.081 113.116 202.674 98.8923 202.674 98.8923C202.674 98.8923 202.767 98.148 202.9 97.0327C202.9 97.0055 202.9 96.9761 202.911 96.949C203.316 93.8337 204.119 87.9855 204.513 87.1959C205.056 86.11 202.844 83.221 202.844 83.221L203.85 74.6353L203.972 73.5991C206.095 72.6512 207.721 69.6242 207.721 69.6242L208.97 67.4365C210.327 66.5654 210.398 75.1013 210.398 75.1013L209.04 95.2567L213.538 94.0147C213.538 94.0147 222.501 128.918 221.734 131.493Z" fill="black"/>
<path d="M227.56 132.884C221.372 135.957 210.126 133.111 210.126 133.111C208.995 134.151 206.015 135.685 206.015 135.685L204.389 115.55C203.353 112.835 202.945 98.6118 202.945 98.6118C202.945 98.6118 204.253 87.9991 204.796 86.9154C204.954 86.5987 204.877 86.1281 204.69 85.6213C203.766 83.2093 203.427 80.613 203.699 78.0447L204.133 74.3548L204.253 73.3209C206.377 72.3707 208.004 69.3436 208.004 69.3436L209.135 67.3618L211.217 63.7104L212.203 61.9819L212.37 62.1335L213.649 63.2918C213.649 63.2918 214.192 63.7443 215.006 64.423C216.777 65.9162 219.838 68.545 221.417 70.1536C222.807 71.5698 223.245 77.0787 223.372 81.2256C223.456 83.9562 223.406 86.0964 223.406 86.0964C222.006 88.4018 225.668 106.91 225.668 106.91C226.521 110.487 227.56 132.884 227.56 132.884Z" fill="white"/>
<path opacity="0.03" d="M215.682 69.2984C215.682 69.2984 211.436 77.3818 211.929 80.4541C212.422 83.5264 213.825 87.0036 213.148 87.8158C212.916 88.1235 212.615 88.3733 212.27 88.5456C211.925 88.7179 211.545 88.808 211.16 88.809C210.481 88.8542 208.671 90.1189 208.671 90.2546C208.671 90.3904 206.999 90.3904 205.504 91.0238C204.008 91.6573 201.8 92.017 201.8 92.017C201.8 92.017 197.502 91.8813 197.101 92.2885C196.701 92.6957 196.289 95.1323 197.146 97.0757C198.004 99.019 198.956 100.469 199.676 100.734C200.395 100.999 204.961 99.4692 208.664 99.1073C212.368 98.7453 216.388 95.811 216.388 95.811C216.388 95.811 220.815 94.2273 221.591 91.5645C222.367 88.9017 220.643 74.2665 220.643 74.2665C220.643 74.2665 219.34 67.4455 215.682 69.2984Z" fill="black"/>
<path opacity="0.03" d="M215.139 68.6197C215.139 68.6197 210.893 76.7054 211.391 79.7754C211.888 82.8454 213.286 86.3249 212.608 87.1394C212.376 87.4474 212.076 87.6975 211.731 87.8698C211.387 88.0422 211.007 88.1321 210.621 88.1326C209.943 88.1778 208.133 89.4425 208.133 89.5782C208.133 89.7139 206.461 89.7139 204.965 90.3451C203.47 90.9763 201.262 91.3383 201.262 91.3383C201.262 91.3383 196.963 91.2026 196.565 91.6098C196.167 92.017 195.751 94.4559 196.611 96.397C197.47 98.3381 198.42 99.7905 199.14 100.055C199.859 100.32 204.425 98.7905 208.128 98.4308C211.832 98.0711 215.852 95.1323 215.852 95.1323C215.852 95.1323 220.277 93.5486 221.044 90.8881C221.811 88.2276 220.096 73.5878 220.096 73.5878C220.096 73.5878 218.798 66.7691 215.139 68.6197Z" fill="black"/>
<path d="M215.549 68.8912C215.549 68.8912 211.302 76.9769 211.8 80.0469C212.298 83.1169 213.696 86.5964 213.019 87.4086C212.788 87.7174 212.487 87.968 212.142 88.1408C211.797 88.3136 211.417 88.4037 211.031 88.404C210.352 88.4493 208.542 89.7139 208.542 89.8474C208.542 89.9809 206.872 89.9832 205.375 90.6166C203.877 91.2501 201.671 91.6098 201.671 91.6098C201.671 91.6098 197.373 91.4741 196.972 91.8813C196.572 92.2885 196.16 94.7273 197.018 96.6684C197.875 98.6096 198.827 100.062 199.547 100.327C200.266 100.591 204.832 99.062 208.535 98.7C212.239 98.3381 216.259 95.4038 216.259 95.4038C216.259 95.4038 220.686 93.8201 221.462 91.1573C222.238 88.4945 220.526 73.8593 220.526 73.8593C220.526 73.8593 219.205 67.0496 215.549 68.8912Z" fill="white"/>
<path opacity="0.1" d="M215.456 90.5782C215.456 90.5782 212.062 89.8995 213.243 91.0306C214.424 92.1618 214.417 93.1527 215.863 93.1075C217.309 93.0622 215.456 90.5782 215.456 90.5782Z" fill="black"/>
<path opacity="0.1" d="M221.191 114.917C221.191 114.917 219.657 115.955 222.592 118.349C225.526 120.742 221.191 114.917 221.191 114.917Z" fill="black"/>
<path opacity="0.1" d="M218.264 123.453C218.264 123.588 217.721 128.43 219.752 129.64C221.784 130.85 218.264 123.453 218.264 123.453Z" fill="black"/>
<path d="M186.007 85.5082C184.369 85.5648 180.83 86.0647 182.665 89.4877C184.287 92.517 187.014 90.4922 188.547 88.956C188.173 87.5239 187.264 86.2898 186.007 85.5082Z" fill="#FFB0B1"/>
<path opacity="0.1" d="M215.006 64.561C213.268 65.7487 211.811 66.751 211.526 66.9591C210.748 67.536 209.264 70.9228 208.307 72.6512C207.544 74.0426 205.067 74.4 204.133 74.4882L204.253 73.4543C206.377 72.5042 208.004 69.4771 208.004 69.4771L212.203 62.1154L213.648 63.4298C213.648 63.4298 214.191 63.8823 215.006 64.561Z" fill="black"/>
<path d="M215.006 64.4253C213.268 65.613 211.811 66.6152 211.526 66.8256C210.748 67.4003 209.264 70.787 208.307 72.5155C207.544 73.9068 205.067 74.2643 204.133 74.3525L204.253 73.3186C206.377 72.3684 208.004 69.3414 208.004 69.3414L212.203 61.9797L213.648 63.2896C213.648 63.2896 214.191 63.7375 215.006 64.4253Z" fill="#DCE7FF"/>
<path d="M211.662 58.6608C211.663 60.0188 211.251 61.3451 210.481 62.4638C209.572 63.7865 208.218 64.7393 206.666 65.1494C205.114 65.5595 203.467 65.3997 202.023 64.6991C200.579 63.9984 199.433 62.8032 198.795 61.3305C198.157 59.8577 198.068 58.2049 198.544 56.672C199.02 55.139 200.029 53.8275 201.39 52.9754C202.75 52.1233 204.371 51.787 205.958 52.0276C207.545 52.2682 208.993 53.0697 210.039 54.2867C211.086 55.5037 211.662 57.0556 211.662 58.6608Z" fill="#FFB0B1"/>
<path opacity="0.1" d="M223.372 81.2278C222.453 80.6627 221.705 79.8589 221.207 78.9021C220.829 78.1555 220.578 77.2936 219.933 76.7642C219.352 76.2891 218.576 76.1737 217.852 75.961C215.472 75.2575 213.476 73.0856 213.402 70.606C213.366 69.4387 213.73 68.2735 213.565 67.1175C213.471 66.4632 213.211 65.8439 212.809 65.3189C212.61 65.0678 212.391 64.8325 212.155 64.6153C211.838 64.3167 211.506 64.0271 211.216 63.7104C211.034 63.5142 210.874 63.2979 210.741 63.0656C210.634 62.8755 210.546 62.6745 210.481 62.4661C210.029 61.0815 210.44 59.439 209.943 58.0386L209.915 57.9617C209.728 57.464 209.345 56.9663 208.814 56.9278C208.282 56.8893 207.827 57.3305 207.32 57.5273C206.259 57.9391 205.115 57.2377 204.23 56.5228C203.345 55.8079 202.348 54.9912 201.223 55.1496C200.479 55.2559 199.891 55.7627 199.205 56.0251C199.051 56.085 198.891 56.1312 198.728 56.1631C199.308 54.7164 200.374 53.5168 201.742 52.7705C203.111 52.0242 204.697 51.7778 206.227 52.0736C207.757 52.3694 209.137 53.189 210.129 54.3915C211.121 55.5939 211.663 57.1043 211.662 58.663C211.663 59.1337 211.613 59.6032 211.515 60.0634C211.526 60.0951 211.538 60.1245 211.551 60.1562C211.814 60.8349 212.11 61.5317 212.37 62.1335L213.648 63.2918C213.648 63.2918 214.191 63.7443 215.006 64.423C216.777 65.9162 219.838 68.545 221.417 70.1536C222.806 71.5743 223.241 77.0809 223.372 81.2278Z" fill="black"/>
<path d="M199.126 51.8918C199.45 51.2334 199.611 50.4959 199.997 49.8715C200.565 48.9666 201.556 48.3874 202.574 48.0367C205.233 47.1205 210.85 45.7902 212.529 48.0367C212.859 48.4892 213.133 48.9914 213.59 49.3036C213.938 49.5412 214.359 49.643 214.741 49.8217C215.811 50.324 216.495 51.419 216.859 52.5366C217.223 53.6542 217.332 54.8532 217.599 56.0048C217.94 57.4821 218.54 58.8825 219.137 60.2738C219.841 61.9163 220.587 63.6199 221.945 64.7805C223.797 66.3641 224.207 68.6061 225.926 70.3436C227.962 72.4069 227.897 75.8117 226.847 78.5153C226.709 78.8704 226.553 79.2415 226.607 79.6193C226.662 79.9971 226.942 80.341 227.207 80.6419L228.32 81.8975C225.687 82.5332 222.707 81.1577 221.481 78.7438C221.103 77.9972 220.852 77.1375 220.205 76.6058C219.626 76.1307 218.847 76.0176 218.126 75.8049C215.746 75.0991 213.75 72.925 213.676 70.4454C213.639 69.2803 214.004 68.1152 213.839 66.9614C213.747 66.3027 213.486 65.6791 213.081 65.1515C212.459 64.3393 211.52 63.7941 211.013 62.8891C210.155 61.3756 210.807 59.4096 210.189 57.7852C209.999 57.2875 209.619 56.7898 209.088 56.7513C208.556 56.7129 208.101 57.154 207.592 57.3509C206.533 57.7626 205.389 57.0635 204.504 56.3464C203.619 55.6292 202.622 54.8148 201.495 54.9754C200.751 55.0795 200.165 55.5862 199.479 55.8509C198.973 56.0455 197.945 56.2197 197.502 55.7921C196.565 54.9301 198.735 52.6972 199.126 51.8918Z" fill="#591D4B"/>
<path opacity="0.1" d="M222.11 77.9972C221.73 77.2506 221.481 76.3909 220.834 75.8615C220.255 75.3864 219.476 75.271 218.752 75.0584C216.375 74.3548 214.379 72.1806 214.302 69.7011C214.266 68.536 214.63 67.3686 214.467 66.2148C214.373 65.5603 214.112 64.9411 213.71 64.4162C213.085 63.604 212.146 63.0588 211.642 62.1538C210.784 60.6426 211.436 58.6766 210.816 57.05C210.628 56.5545 210.246 56.0568 209.716 56.0161C209.187 55.9753 208.728 56.421 208.221 56.6179C207.162 57.0296 206.015 56.3283 205.133 55.6134C204.251 54.8985 203.248 54.0817 202.124 54.2401C201.38 54.3464 200.791 54.8532 200.108 55.1156C199.601 55.3102 198.572 55.4867 198.129 55.0591C197.197 54.1541 199.366 51.9257 199.755 51.1248C200.079 50.4642 200.239 49.729 200.629 49.1045C200.649 49.0706 200.672 49.0367 200.694 49.0027C200.403 49.2439 200.152 49.5294 199.95 49.8489C199.563 50.4733 199.402 51.2063 199.079 51.8692C198.687 52.67 196.518 54.9052 197.452 55.8034C197.905 56.2333 198.923 56.0568 199.43 55.8622C200.108 55.5975 200.701 55.0908 201.445 54.9867C202.576 54.8261 203.572 55.6428 204.454 56.3577C205.337 57.0726 206.49 57.7739 207.545 57.3622C208.051 57.1653 208.495 56.7219 209.038 56.7626C209.581 56.8034 209.943 57.2988 210.14 57.7965C210.757 59.4209 210.106 61.3869 210.963 62.9004C211.47 63.7895 212.409 64.3461 213.031 65.1628C213.436 65.6904 213.697 66.314 213.789 66.9727C213.954 68.1265 213.59 69.2916 213.626 70.4567C213.701 72.9453 215.696 75.1104 218.076 75.8163C218.793 76.0289 219.576 76.142 220.155 76.6171C220.804 77.1488 221.06 78.0085 221.431 78.7551C222.657 81.169 225.637 82.5445 228.27 81.9088L227.745 81.3161C225.463 81.35 223.153 80.0514 222.11 77.9972Z" fill="black"/>
<path opacity="0.1" d="M206.513 67.6718C206.217 68.1242 205.368 70.4409 204.66 72.4634C203.997 72.2055 203.396 70.5608 203.396 70.5608L206.929 65.5338C207.291 66.0315 207.054 66.8573 206.513 67.6718Z" fill="black"/>
<path d="M206.649 67.536C206.352 67.9885 205.504 70.3051 204.796 72.3277C204.133 72.072 203.531 70.425 203.531 70.425L207.065 65.4003C207.427 65.8958 207.189 66.7238 206.649 67.536Z" fill="#DCE7FF"/>
<path d="M186.102 90.6483L184.143 84.4698C184.12 84.3975 184.111 84.3212 184.117 84.2455C184.124 84.1698 184.145 84.0961 184.18 84.0287C184.215 83.9612 184.262 83.9013 184.321 83.8523C184.379 83.8034 184.446 83.7665 184.518 83.7436C184.664 83.6981 184.822 83.712 184.958 83.7823C185.093 83.8526 185.196 83.9737 185.242 84.1191L187.201 90.2908L187.007 91.5827L186.102 90.6483Z" fill="#BE8B87"/>
<path opacity="0.1" d="M184.328 83.9268C184.474 83.8806 184.632 83.8942 184.769 83.9646C184.905 84.035 185.007 84.1564 185.054 84.3024L187.013 90.4741L186.866 91.4424L187.009 91.5917L187.203 90.2999L185.233 84.1282C185.186 83.9828 185.084 83.8617 184.948 83.7914C184.813 83.721 184.655 83.7071 184.509 83.7526C184.386 83.7924 184.28 83.872 184.208 83.9789C184.246 83.9582 184.287 83.9408 184.328 83.9268Z" fill="white"/>
<path d="M186.102 90.6483L187.202 90.2999L187.041 91.3587L187.007 91.5917L186.686 91.2569L186.102 90.6483Z" fill="#EFC8C4"/>
<path d="M186.686 91.2569C186.705 91.2327 186.729 91.2127 186.756 91.198C186.772 91.188 186.79 91.1827 186.809 91.1827C186.828 91.1827 186.846 91.188 186.862 91.198C186.877 91.2167 186.89 91.2372 186.9 91.2591C186.915 91.2841 186.936 91.3054 186.96 91.3214C186.984 91.3375 187.012 91.3479 187.041 91.3519L187.007 91.5781L186.686 91.2569Z" fill="#727A9C"/>
<path d="M184.131 86.6643C184.131 86.6643 188.061 86.6416 187.136 88.3135C186.21 89.9854 184.765 90.1868 184.765 90.1868L184.131 86.6643Z" fill="#FFB0B1"/>
<path d="M159.691 11.6331H159.521C152.77 11.6331 146.8 15.2053 143.366 20.4766C139.931 15.2053 133.961 11.6331 127.21 11.6331H127.04C121.974 11.6813 117.132 13.7271 113.565 17.3258C109.999 20.9245 107.996 25.7852 107.994 30.8518C107.994 37.1435 110.749 46.0707 116.122 53.4166C126.36 67.4138 143.366 79.66 143.366 79.66C143.366 79.66 160.372 67.4161 170.607 53.4166C175.982 46.0707 178.735 37.1435 178.735 30.8518C178.733 25.7856 176.731 20.9252 173.165 17.3266C169.599 13.728 164.757 11.6819 159.691 11.6331ZM157.263 54.4935C156.495 54.4906 155.745 54.2552 155.112 53.8184C154.479 53.3815 153.993 52.7636 153.718 52.0456H149.682C149.416 52.044 149.158 51.9594 148.942 51.8036C148.727 51.6479 148.566 51.4288 148.481 51.1769L147.241 47.4417L143.318 61.1494C143.242 61.4132 143.082 61.6452 142.862 61.8104C142.643 61.9757 142.376 62.0652 142.101 62.0656H142.022C141.735 62.0518 141.462 61.94 141.248 61.7489C141.034 61.5578 140.892 61.2991 140.845 61.0159L136.803 36.7L133.848 51.0886C133.78 51.362 133.623 51.6048 133.401 51.7782C133.179 51.9517 132.906 52.0458 132.624 52.0456H126.939C126.768 52.0528 126.598 52.0255 126.439 51.9653C126.279 51.905 126.133 51.8131 126.01 51.6951C125.887 51.577 125.789 51.4353 125.722 51.2784C125.655 51.1215 125.621 50.9527 125.621 50.7821C125.621 50.6115 125.655 50.4427 125.722 50.2858C125.789 50.1289 125.887 49.9872 126.01 49.8691C126.133 49.7511 126.279 49.6592 126.439 49.5989C126.598 49.5387 126.768 49.5114 126.939 49.5186H131.629L135.814 30.1731C135.883 29.8871 136.049 29.6338 136.283 29.4566C136.518 29.2794 136.807 29.1892 137.101 29.2015C137.395 29.2138 137.675 29.3278 137.895 29.524C138.114 29.7202 138.258 29.9864 138.303 30.2772L142.431 55.0817L145.947 42.8175C146.02 42.5592 146.175 42.3315 146.388 42.1684C146.601 42.0053 146.862 41.9155 147.13 41.9125H147.155C147.421 41.9126 147.68 41.9966 147.895 42.1526C148.111 42.3086 148.271 42.5286 148.354 42.7813L150.596 49.5254H153.668C153.887 48.8617 154.284 48.2713 154.817 47.8194C155.35 47.3674 155.997 47.0714 156.688 46.9641C157.378 46.8568 158.085 46.9423 158.729 47.2112C159.374 47.4801 159.932 47.922 160.342 48.488C160.751 49.054 160.997 49.7221 161.051 50.4187C161.104 51.1153 160.965 51.8132 160.647 52.4354C160.329 53.0576 159.846 53.58 159.25 53.9447C158.654 54.3095 157.969 54.5025 157.27 54.5026L157.263 54.4935Z" fill="#F44E4E"/>
</g>
<defs>
<linearGradient id="paint0_linear_2125_390" x1="80.6146" y1="175.304" x2="80.6146" y2="36.0915" gradientUnits="userSpaceOnUse">
<stop stop-color="#808080" stop-opacity="0.25"/>
<stop offset="0.54" stop-color="#808080" stop-opacity="0.12"/>
<stop offset="1" stop-color="#808080" stop-opacity="0.1"/>
</linearGradient>
<linearGradient id="paint1_linear_2125_390" x1="202.126" y1="173.543" x2="202.126" y2="46.3988" gradientUnits="userSpaceOnUse">
<stop stop-color="#808080" stop-opacity="0.25"/>
<stop offset="0.54" stop-color="#808080" stop-opacity="0.12"/>
<stop offset="1" stop-color="#808080" stop-opacity="0.1"/>
</linearGradient>
<clipPath id="clip0_2125_390">
<rect width="250" height="177.084" fill="white"/>
</clipPath>
</defs>
</svg>
